<?xml version="1.0" standalone="no"?>
<!DOCTYPE svg PUBLIC "-//W3C//DTD SVG 1.1//EN" "http://www.w3.org/Graphics/SVG/1.1/DTD/svg11.dtd" >
<svg xmlns="http://www.w3.org/2000/svg" xmlns:xlink="http://www.w3.org/1999/xlink" version="1.1">
<metadata></metadata>
<defs>
<font id="gt_walsheimbold_oblique" horiz-adv-x="1300" >
<font-face units-per-em="2048" ascent="1536" descent="-512" />
<missing-glyph horiz-adv-x="497" />
<glyph unicode="&#xfb01;" horiz-adv-x="1429" d="M113 754l24 233h176l9 86q12 135 57 211t103.5 115t123 48t115.5 9q72 0 114 -8t68 -18l-24 -226q-23 6 -45.5 9.5t-53.5 3.5q-25 0 -48 -3.5t-42.5 -16.5t-34 -37.5t-18.5 -67.5l-10 -105h229l-25 -233h-229l-80 -754h-313l80 754h-176zM946 0l105 987h313l-104 -987 h-314zM1044 1296q0 43 17.5 82t47.5 68t69 45t82 16q78 0 128 -51t50 -125q0 -43 -17.5 -82t-47.5 -67.5t-68.5 -45t-81.5 -16.5q-78 0 -128.5 51t-50.5 125z" />
<glyph unicode="&#xfb02;" horiz-adv-x="1355" d="M113 754l24 233h176l9 86q12 135 57 211t103.5 115t123 48t115.5 9q72 0 114 -8t68 -18l-24 -226q-23 6 -45.5 9.5t-53.5 3.5q-25 0 -48 -3.5t-42.5 -16.5t-34 -37.5t-18.5 -67.5l-10 -105h229l-25 -233h-229l-80 -754h-313l80 754h-176zM909 0l152 1434h313l-151 -1434 h-314z" />
<glyph unicode="&#xfb03;" horiz-adv-x="2211" d="M113 754l24 233h178l9 86q12 135 57 211t103.5 115t122 48t114.5 9q72 0 114 -8t70 -18l-24 -226q-23 6 -44.5 9.5t-54.5 3.5q-25 0 -49 -3.5t-43.5 -16.5t-34 -37.5t-18.5 -67.5l-10 -105h231l-24 -233h-230l-80 -754h-313l80 754h-178zM893 754l25 233h176l8 86 q12 135 57 211t103.5 115t123 48t115.5 9q72 0 114 -8t68 -18l-24 -226q-23 6 -45.5 9.5t-52.5 3.5q-25 0 -48.5 -3.5t-43 -16.5t-34 -37.5t-18.5 -67.5l-10 -105h229l-24 -233h-230l-79 -754h-314l80 754h-176zM1729 0l104 987h313l-104 -987h-313zM1821 1298q0 45 18.5 84 t49 68t70.5 46t85 17q80 0 130 -52t50 -128q0 -45 -17.5 -84t-48 -68.5t-70.5 -47t-85 -17.5q-80 0 -131 53t-51 129z" />
<glyph unicode="&#xfb04;" horiz-adv-x="2131" d="M113 754l24 233h178l9 86q12 135 57 211t103.5 115t122 48t114.5 9q72 0 114 -8t70 -18l-24 -226q-23 6 -44.5 9.5t-54.5 3.5q-25 0 -49 -3.5t-43.5 -16.5t-34 -37.5t-18.5 -67.5l-10 -105h231l-24 -233h-230l-80 -754h-313l80 754h-178zM893 754l25 233h176l8 86 q12 135 57 211t103.5 115t123 48t115.5 9q72 0 114 -8t68 -18l-24 -226q-23 6 -45.5 9.5t-52.5 3.5q-25 0 -48.5 -3.5t-43 -16.5t-34 -37.5t-18.5 -67.5l-10 -105h229l-24 -233h-230l-79 -754h-314l80 754h-176zM1692 0l151 1434h314l-152 -1434h-313z" />
<glyph horiz-adv-x="0" />
<glyph unicode="&#xd;" horiz-adv-x="512" />
<glyph unicode=" "  horiz-adv-x="497" />
<glyph unicode="&#x09;" horiz-adv-x="497" />
<glyph unicode="&#xa0;" horiz-adv-x="497" />
<glyph unicode="!" horiz-adv-x="692" d="M152 160q0 45 18 87t50 72.5t75 49t90 18.5q43 0 78 -15.5t61.5 -41t41 -60t14.5 -73.5q0 -47 -19.5 -88t-52.5 -73t-76 -50.5t-90 -18.5q-86 0 -138 56.5t-52 136.5zM229 496l101 938h336l-101 -938h-336z" />
<glyph unicode="&#x22;" horiz-adv-x="856" d="M227 1200l27 256h262l-27 -256l-98 -315h-131zM618 1200l27 256h264l-26 -256l-101 -315h-129z" />
<glyph unicode="#" horiz-adv-x="1208" d="M92 369l23 221h207l61 254h-180l24 221h211l90 369h230l-90 -369h211l90 369h227l-90 -369h164l-25 -221h-194l-62 -254h168l-22 -221h-199l-90 -369h-228l89 369h-209l-92 -369h-228l90 369h-176zM551 590h211l61 254h-211z" />
<glyph unicode="$" horiz-adv-x="1241" d="M180 475h332q-12 -115 43 -181.5t158 -66.5q88 0 149.5 50.5t61.5 132.5q0 39 -15.5 66.5t-43 49t-65.5 38t-81 32.5q-92 35 -172 70.5t-139.5 83t-93 113t-33.5 159.5q0 98 36.5 175t99 132t145.5 89t173 46l23 219h182l-22 -219q104 -12 178.5 -54t121 -102.5 t64.5 -136t10 -157.5h-331q10 96 -31 151.5t-129 55.5q-74 0 -131.5 -41t-57.5 -117q0 -68 51.5 -108t135.5 -70q88 -33 171 -67t146.5 -83t102 -118.5t38.5 -170.5q0 -100 -37.5 -183t-105 -145.5t-159 -100t-195.5 -48.5l-23 -219h-182l23 219q-96 12 -175 51 t-132.5 103.5t-78 153t-12.5 198.5z" />
<glyph unicode="%" horiz-adv-x="1955" d="M244 911l26 256q6 57 34 109.5t72 91.5t105.5 61.5t134.5 22.5q76 0 133.5 -23.5t94.5 -63.5t52 -91t9 -107l-26 -256q-6 -57 -34 -109t-74 -91t-107.5 -61.5t-135.5 -22.5t-130 22.5t-92 61.5t-52 91t-10 109zM449 0l978 1544l207 -108l-981 -1545zM463 911 q-4 -43 18.5 -74.5t67.5 -31.5t75.5 31.5t34.5 74.5l27 256q4 43 -19.5 75t-68.5 32t-74.5 -32t-34.5 -75zM1200 266l27 256q6 57 33.5 109.5t71.5 91.5t105.5 61.5t135.5 22.5q76 0 133 -23.5t94 -63.5t52.5 -91t9.5 -107l-27 -256q-6 -57 -33.5 -109.5t-74 -91t-107.5 -61 t-135 -22.5t-130.5 22.5t-92 61t-52 91t-10.5 109.5zM1419 266q-4 -43 18.5 -74.5t67.5 -31.5t76 31.5t35 74.5l26 256q4 43 -19.5 75t-68.5 32t-74.5 -32t-33.5 -75z" />
<glyph unicode="&#x26;" horiz-adv-x="1296" d="M123 373q0 74 22.5 131t59.5 103t86 80t104 58q-74 35 -127 102.5t-53 186.5q0 106 46 187.5t122 134.5t175 80.5t204 27.5q129 0 219 -37.5t146.5 -100t78 -145.5t11.5 -175h-332q10 94 -24 151t-132 57q-82 0 -135 -43t-53 -135q0 -70 40 -113.5t148 -43.5l-27 -256 q-70 0 -116.5 -17.5t-75.5 -47.5t-41 -66.5t-12 -75.5q0 -47 15 -81t41 -56.5t59.5 -32.5t68.5 -10q88 0 157.5 61t82.5 176h-123l28 258h543l-29 -258h-94q-12 -115 -60 -207t-125 -158.5t-179.5 -102.5t-220.5 -36q-98 0 -188.5 25.5t-159 77t-109.5 127t-41 174.5z" />
<glyph unicode="'" horiz-adv-x="458" d="M225 1200l27 256h262l-27 -256l-98 -315h-131z" />
<glyph unicode="(" horiz-adv-x="817" d="M166 92l96 930q12 115 63.5 218t136.5 180t197.5 122t247.5 45l-28 -282q-61 0 -112.5 -22.5t-89.5 -61.5t-61.5 -90.5t-29.5 -108.5l-99 -930q-6 -57 6.5 -108.5t43 -90t76.5 -61t108 -22.5l-29 -283q-135 0 -238.5 45t-172 122t-98 180t-17.5 218z" />
<glyph unicode=")" horiz-adv-x="817" d="M25 -473l30 283q61 0 113.5 22.5t90.5 61t61.5 90t29.5 108.5l99 930q6 57 -7.5 108.5t-44 90.5t-78 61.5t-108.5 22.5l31 282q135 0 239.5 -45t173 -122t98 -180t17.5 -218l-98 -930q-12 -115 -63.5 -218t-136.5 -180t-198.5 -122t-248.5 -45z" />
<glyph unicode="*" horiz-adv-x="954" d="M199 1116l75 170l256 -108l9 290h186l-53 -290l278 108l39 -170l-282 -72l172 -241l-166 -109l-135 269l-193 -269l-141 109l221 241z" />
<glyph unicode="+" horiz-adv-x="1255" d="M238 457l26 252h303l33 311h268l-32 -311h303l-27 -252h-303l-33 -312h-268l33 312h-303z" />
<glyph unicode="," horiz-adv-x="632" d="M74 -297l14 127q66 0 112 15.5t79 37.5q33 25 50 54.5t23 60.5q-4 -4 -20.5 -10t-44.5 -6q-76 0 -125 53t-49 131q0 45 18.5 86t50 71.5t74.5 49t92 18.5q90 0 144.5 -63.5t54.5 -202.5q0 -205 -124 -313.5t-349 -108.5z" />
<glyph unicode="-" horiz-adv-x="649" d="M117 483l26 250h519l-27 -250h-518z" />
<glyph unicode="." horiz-adv-x="618" d="M121 168q0 45 18.5 86t49 71.5t71.5 48t88 17.5q84 0 136.5 -54t52.5 -132q0 -45 -18.5 -86t-49.5 -72t-73 -48t-87 -17q-84 0 -136 54t-52 132z" />
<glyph unicode="/" horiz-adv-x="1005" d="M12 -39l895 1671l242 -108l-895 -1671z" />
<glyph unicode="0" horiz-adv-x="1261" d="M135 481l49 471q10 104 58.5 196.5t127.5 163t184 111.5t230 41t222.5 -41t161 -111.5t92 -162.5t18.5 -197l-49 -471q-10 -104 -59.5 -196t-128 -163t-184 -112t-230.5 -41t-221.5 41t-160 112t-92 163t-18.5 196zM467 481q-4 -47 6 -89t34.5 -73.5t61.5 -50t86 -18.5 t90 17.5t74 49t52.5 73.5t25.5 91l49 471q10 94 -41 163t-151 69q-49 0 -91 -18.5t-73 -50.5t-50.5 -74t-23.5 -89z" />
<glyph unicode="1" horiz-adv-x="829" d="M160 948l24 234q104 0 172 15t109 46t60.5 78t25.5 113h293l-152 -1434h-338l101 948h-295z" />
<glyph unicode="2" horiz-adv-x="1181" d="M92 0q18 174 59.5 293t99.5 200.5t134 139t164 108.5q68 39 128 73t106 72t74 83t28 104q0 76 -42 108.5t-108 32.5q-78 0 -135 -48t-68 -160h-329q10 98 53 182t113.5 145.5t168 96t218.5 34.5q94 0 177 -23.5t144.5 -70.5t96 -117.5t34.5 -167.5q0 -106 -42 -188 t-105.5 -144.5t-138 -109.5t-140.5 -84q-80 -49 -131 -85t-82.5 -66.5t-47 -63.5t-19.5 -76h614l-29 -268h-995z" />
<glyph unicode="3" horiz-adv-x="1230" d="M117 481h332q-12 -117 40 -181t148 -64q100 0 156.5 63t56.5 156q0 74 -44 121t-149 47h-129l27 256h129q61 0 102 15t66 42t34 59.5t9 69.5q0 84 -42 116.5t-112 32.5q-102 0 -146 -57t-54 -151h-332q10 94 49 177t108.5 145.5t167 99t224.5 36.5q96 0 181 -22.5 t148.5 -68.5t100.5 -113.5t37 -159.5q0 -68 -20.5 -126.5t-55.5 -103.5t-79 -76.5t-93 -48.5q86 -33 143.5 -110.5t57.5 -202.5q0 -109 -48.5 -194.5t-128 -145t-184 -91.5t-217.5 -32q-123 0 -219 37t-158.5 103.5t-90.5 161t-15 210.5z" />
<glyph unicode="4" horiz-adv-x="1251" d="M158 395l108 1039h332l-80 -758h242l43 395h330l-43 -395h174l-29 -281h-174l-41 -395h-330l41 395h-573z" />
<glyph unicode="5" d="M160 487h321q-4 -49 6.5 -93t37 -77.5t66.5 -53t93 -19.5q55 0 102.5 22.5t81 59t52 86t18.5 104.5q0 43 -13.5 83t-39 70.5t-64.5 48t-90 17.5q-135 0 -217 -131h-309l88 830h969l-27 -258h-664l-34 -320q47 61 131 96t184 35q104 0 181 -37t127 -99.5t76 -142 t26 -165.5q0 -117 -43 -220.5t-123 -182.5t-191.5 -125t-249.5 -46q-129 0 -226 42t-160.5 113t-91 165t-17.5 198z" />
<glyph unicode="6" horiz-adv-x="1228" d="M113 442q0 98 32.5 184.5t90.5 161.5l481 646h373l-332 -430q23 -4 43 -9.5t41 -13.5q88 -12 157.5 -51t117.5 -98.5t72.5 -135t24.5 -159.5q0 -113 -43 -215.5t-121.5 -180.5t-189.5 -124t-246 -46q-121 0 -215 37t-157.5 101.5t-96 150.5t-32.5 182zM436 467 q0 -92 52.5 -155.5t150.5 -63.5q55 0 101 21.5t80 58.5t53.5 86t19.5 104q0 92 -53.5 154.5t-151.5 62.5q-55 0 -101 -21.5t-80 -58.5t-52.5 -85t-18.5 -103z" />
<glyph unicode="7" horiz-adv-x="1087" d="M137 0l619 1155h-563l30 279h1030l-761 -1434h-355z" />
<glyph unicode="8" horiz-adv-x="1261" d="M133 369q0 68 20.5 129t57.5 111t86 86t106 53q-86 35 -125.5 111.5t-39.5 164.5t38.5 168t109.5 140.5t171 96t225 35.5q113 0 200 -29.5t146.5 -80.5t89 -120t29.5 -144q0 -115 -61.5 -209.5t-165.5 -132.5q45 -14 81 -45t61.5 -72t38.5 -90t13 -103q0 -90 -39.5 -175 t-114.5 -150.5t-183.5 -104.5t-243.5 -39q-121 0 -214 32t-156.5 86t-96.5 127t-33 155zM457 399q0 -72 50 -126t148 -54q53 0 97.5 17.5t76 47t49 68.5t17.5 82q0 72 -50 126t-151 54q-55 0 -99 -17t-75 -47t-47 -69t-16 -82zM551 1020q0 -66 43 -114t129 -48q47 0 85 16.5 t65.5 43t42 62.5t14.5 73q0 66 -43 113.5t-129 47.5q-47 0 -85 -16t-65.5 -43t-42 -61.5t-14.5 -73.5z" />
<glyph unicode="9" horiz-adv-x="1228" d="M166 891q0 115 43 218t122 182t189.5 125t245.5 46q121 0 215 -36.5t157.5 -101t96.5 -149.5t33 -182q0 -104 -35 -189t-88 -159l-481 -645h-373l332 428q-109 6 -194 43t-143.5 98.5t-89 143.5t-30.5 178zM487 915q0 -92 54.5 -154.5t152.5 -62.5q55 0 101.5 21.5 t79 58.5t51 85t18.5 104q0 92 -52.5 155.5t-150.5 63.5q-55 0 -102 -21.5t-81 -58.5t-52.5 -86t-18.5 -105z" />
<glyph unicode=":" horiz-adv-x="620" d="M121 168q0 45 18.5 86t50 71.5t72.5 48t88 17.5q82 0 135.5 -54t53.5 -132q0 -45 -18.5 -86t-50.5 -72t-74 -48t-87 -17q-84 0 -136 54t-52 132zM190 825q0 45 18.5 86t49.5 72t72 48.5t88 17.5q84 0 136 -54.5t52 -132.5q0 -45 -18.5 -86t-49 -71.5t-72.5 -48t-87 -17.5 q-84 0 -136.5 54t-52.5 132z" />
<glyph unicode=";" horiz-adv-x="632" d="M82 -297l14 127q66 0 112 15.5t79 37.5q31 25 48 54.5t25 60.5q-4 -4 -20 -10t-45 -6q-78 0 -126 53t-48 131q0 45 17.5 86t49 71.5t74.5 49t94 18.5q90 0 144.5 -63.5t54.5 -200.5q0 -207 -126 -315.5t-347 -108.5zM190 825q0 45 18.5 86t49.5 72t72 48.5t88 17.5 q84 0 136 -54.5t52 -132.5q0 -45 -18.5 -86t-49 -71.5t-72.5 -48t-87 -17.5q-84 0 -136.5 54t-52.5 132z" />
<glyph unicode="&#x3c;" horiz-adv-x="1255" d="M133 459l27 246l1112 362l-29 -283l-686 -202l643 -203l-31 -285z" />
<glyph unicode="=" horiz-adv-x="1255" d="M219 270l27 250h874l-26 -250h-875zM258 641l27 250h874l-26 -250h-875z" />
<glyph unicode="&#x3e;" horiz-adv-x="1255" d="M109 94l30 285l682 203l-641 202l31 283l1034 -362l-24 -246z" />
<glyph unicode="?" horiz-adv-x="1110" d="M145 1006q10 98 52.5 182t113 145.5t167.5 96t216 34.5q94 0 178 -23.5t146.5 -69.5t98.5 -115.5t36 -161.5q0 -84 -28.5 -147.5t-68.5 -112t-85 -81t-78 -57.5q-41 -31 -69.5 -56.5t-46 -53t-28 -61t-14.5 -79.5h-327q8 68 21 120t36.5 96.5t62.5 82t101 78.5 q29 18 63.5 42t64 54.5t50 69.5t20.5 88q0 72 -43 104.5t-108 32.5q-78 0 -134.5 -48t-68.5 -160h-328zM330 160q0 45 18.5 87t50 72.5t74.5 49t90 18.5q86 0 140.5 -56.5t54.5 -133.5q0 -47 -19.5 -88t-51.5 -73t-75 -50.5t-90 -18.5q-86 0 -139 56.5t-53 136.5z" />
<glyph unicode="@" horiz-adv-x="1783" d="M84 397q0 209 82 379t220 290t321.5 185.5t384.5 65.5q164 0 302 -45t237.5 -135t155.5 -226.5t56 -318.5q0 -143 -34.5 -259t-97 -197t-148.5 -124t-189 -43q-127 0 -195.5 59.5t-91.5 151.5q-39 -55 -109.5 -95t-162.5 -40q-74 0 -137.5 28.5t-109.5 80t-72.5 119 t-26.5 147.5q0 94 37 177t97.5 144.5t139 97t162.5 35.5q98 0 158.5 -43t83.5 -90l12 115h238l-51 -483q-10 -104 10 -149.5t67 -45.5q39 0 73 30t58.5 82t38 122.5t13.5 154.5q0 141 -40 242.5t-111 167t-171 96.5t-219 31q-158 0 -294 -50t-235.5 -141.5t-156.5 -218.5 t-57 -282q0 -121 36.5 -228.5t112.5 -190.5t191.5 -131t273.5 -48q86 0 199.5 19.5t228.5 76.5l70 -182q-139 -74 -276.5 -99.5t-248.5 -25.5q-207 0 -361.5 64.5t-257 173t-154.5 253t-52 303.5zM721 438q0 -78 45 -134t131 -56q47 0 88 18.5t70.5 50t47 73.5t17.5 89 q0 80 -48 136.5t-134 56.5q-47 0 -87 -18.5t-68.5 -51.5t-45 -75t-16.5 -89z" />
<glyph unicode="A" horiz-adv-x="1351" d="M8 0l664 1434h305l366 -1434h-360l-37 174h-510l-74 -174h-354zM543 434h348l-109 590z" />
<glyph unicode="B" horiz-adv-x="1296" d="M129 0l152 1434h593q131 0 215.5 -34t130.5 -85t63 -112.5t17 -115.5q0 -80 -27.5 -143t-70.5 -107t-93 -72t-95 -38q33 0 72.5 -19.5t74.5 -56.5t59.5 -91t24.5 -124q0 -53 -19.5 -128t-75.5 -143.5t-157.5 -116.5t-263.5 -48h-600zM485 254h207q68 0 111 19.5t67.5 48 t32.5 61.5t8 59q0 27 -8 55.5t-27.5 53t-54.5 40t-90 15.5h-209zM549 850h199q68 0 109.5 19.5t65 48t33 61.5t9.5 59q0 25 -7.5 51.5t-28 49t-55 37t-92.5 14.5h-198z" />
<glyph unicode="C" horiz-adv-x="1613" d="M137 647q0 158 59.5 306.5t169 263t266 184t353.5 69.5q160 0 282 -47t204.5 -128t124.5 -188.5t44 -229.5h-346q-10 133 -97 213.5t-241 80.5q-111 0 -199.5 -42t-151 -112.5t-95.5 -160.5t-33 -184q0 -86 26.5 -161t78 -130t124 -87t162.5 -32q141 0 240.5 70.5 t144.5 181.5h353q-33 -115 -102.5 -215t-170 -175t-227.5 -118t-275 -43q-168 0 -296.5 55.5t-217 148.5t-134.5 217t-46 263z" />
<glyph unicode="D" horiz-adv-x="1474" d="M137 0l152 1434h526q166 0 292 -54.5t211 -145.5t128 -209t43 -245q0 -147 -57.5 -287.5t-164 -250t-259 -176t-344.5 -66.5h-527zM500 287h178q109 0 196 40t148 106.5t94 150.5t33 174q0 76 -24.5 146.5t-72.5 123.5t-120 86t-164 33h-178z" />
<glyph unicode="E" horiz-adv-x="1136" d="M137 0l152 1434h874l-28 -267h-543l-35 -325h543l-27 -260h-543l-32 -316h542l-28 -266h-875z" />
<glyph unicode="F" horiz-adv-x="1126" d="M137 0l152 1434h874l-30 -279h-543l-41 -387h543l-29 -272h-543l-51 -496h-332z" />
<glyph unicode="G" horiz-adv-x="1710" d="M135 637q0 162 59.5 312.5t169 266t263 185t342.5 69.5q141 0 254.5 -39.5t193.5 -108.5t122 -160q40 -87 40 -184v-9h-354q-4 43 -24.5 82t-57.5 68.5t-89.5 47t-119.5 17.5q-109 0 -194 -45t-144 -119t-90 -168t-31 -193q0 -86 23.5 -161.5t71.5 -132t121 -89 t171 -32.5q80 0 143.5 21.5t110.5 58t78 85t45 101.5h-254l25 248h743l-24 -248h-148q-33 -121 -100.5 -221.5t-163.5 -173t-220 -112.5t-272 -40q-172 0 -302 54.5t-216 147.5t-129 215t-43 257z" />
<glyph unicode="H" horiz-adv-x="1431" d="M137 0l152 1434h332l-62 -580h496l61 580h330l-152 -1434h-329l59 569h-496l-59 -569h-332z" />
<glyph unicode="I" horiz-adv-x="610" d="M137 0l152 1434h336l-152 -1434h-336z" />
<glyph unicode="J" horiz-adv-x="1193" d="M76 496h332q-2 -22 -2 -42q0 -81 32 -136q39 -68 137 -68q92 0 148.5 64.5t69.5 179.5l98 940h330l-99 -940q-27 -254 -178 -391.5t-395 -137.5q-131 0 -226.5 40t-153.5 110.5t-82 168.5q-16 63 -16 133q0 39 5 79z" />
<glyph unicode="K" horiz-adv-x="1349" d="M137 0l152 1434h332l-66 -609l528 609h400l-643 -717l491 -717h-399l-400 606l-63 -606h-332z" />
<glyph unicode="L" horiz-adv-x="927" d="M137 0l152 1434h332l-121 -1147h407l-30 -287h-740z" />
<glyph unicode="M" horiz-adv-x="1796" d="M137 0l152 1434h383l276 -998l486 998h376l-151 -1434h-324l95 889l-404 -889h-246l-225 889l-94 -889h-324z" />
<glyph unicode="N" horiz-adv-x="1468" d="M137 0l152 1434h346l420 -934l98 934h330l-152 -1434h-346l-420 922l-96 -922h-332z" />
<glyph unicode="O" horiz-adv-x="1648" d="M137 645q0 160 60.5 308.5t170 263t263 184t342.5 69.5q168 0 297 -56t217 -149.5t132 -217t44 -259.5q0 -160 -60.5 -308t-170 -264t-263.5 -184.5t-342 -68.5q-170 0 -298 56.5t-216 149.5t-132 217t-44 259zM479 670q0 -80 24.5 -154t73 -130t118 -90t161.5 -34 q104 0 190.5 43t148.5 112.5t96 160t34 186.5q0 80 -24.5 153.5t-72.5 130t-119 90t-163 33.5q-104 0 -190 -42t-147.5 -112.5t-95.5 -160.5t-34 -186z" />
<glyph unicode="P" d="M137 0l152 1434h600q111 0 198 -38t147 -102.5t92 -149.5t32 -181q0 -113 -43 -215.5t-120 -180.5t-183.5 -124t-233.5 -46h-268l-41 -397h-332zM539 668h227q57 0 104.5 22.5t81 60t53 87t19.5 102.5q0 45 -14.5 86t-41 71.5t-64.5 48t-85 17.5h-227z" />
<glyph unicode="Q" horiz-adv-x="1648" d="M137 645q0 160 60.5 308.5t170 263t263 184t342.5 69.5q168 0 297 -56t217 -149.5t132 -217.5t44 -259q0 -121 -34 -233.5t-98.5 -210.5t-155.5 -175t-206 -126l105 -166l-305 -147l-148 233q-166 0 -294 56.5t-214 150.5t-131 217t-45 258zM479 670q0 -80 24.5 -154 t73 -130t118 -90t161.5 -34q104 0 190.5 43t148.5 112.5t96 160t34 186.5q0 80 -24.5 153.5t-72.5 130t-119 90t-163 33.5q-104 0 -190 -42t-147.5 -112.5t-95.5 -160.5t-34 -186z" />
<glyph unicode="R" horiz-adv-x="1339" d="M137 0l152 1434h602q111 0 198 -38t147 -102.5t92 -149.5t32 -181q0 -84 -23.5 -161t-66.5 -142.5t-105.5 -119t-140.5 -87.5l240 -453h-385l-213 397h-156l-41 -397h-332zM539 668h227q57 0 104.5 22.5t81 60t53 87t19.5 102.5q0 45 -14.5 86t-41 71.5t-64.5 48 t-85 17.5h-227z" />
<glyph unicode="S" horiz-adv-x="1241" d="M129 475h332q-2 -21 -3 -40q0 -87 46 -141q55 -66 158 -67q88 0 148 50.5t60 132.5q0 39 -15 66.5t-42 49t-64.5 38t-80.5 32.5q-92 35 -172 70.5t-139.5 83t-93.5 113t-34 159.5q0 111 46.5 194.5t123 140t176 85t205.5 28.5q125 0 217.5 -36.5t148.5 -100t80 -145.5 q16 -58 16 -120q0 -27 -3 -54h-332q2 19 2 37q-1 71 -33 115q-40 54 -126 55q-74 0 -131.5 -41t-57.5 -117q0 -68 51.5 -108t135.5 -70q90 -33 173 -68t145 -84t100 -117.5t38 -169.5q0 -109 -44 -197.5t-121.5 -152t-184 -98.5t-229.5 -35q-125 0 -223.5 36t-163 102.5 t-92.5 160.5q-20 66 -21 145q0 33 4 68z" />
<glyph unicode="T" horiz-adv-x="1042" d="M152 1147l30 287h981l-30 -287h-326l-121 -1147h-332l121 1147h-323z" />
<glyph unicode="U" horiz-adv-x="1345" d="M166 489l98 945h332l-98 -942q-2 -16 -2 -32q0 -32 8 -62q12 -44 37.5 -76.5t65.5 -52t91 -19.5t94.5 19.5t77 52t54 76.5t26.5 94l99 942h331l-98 -945q-12 -111 -61.5 -207t-129 -166.5t-187 -111.5t-236.5 -41t-227.5 41t-162.5 112q-64 70 -94 166q-21 69 -21 145 q0 30 3 62z" />
<glyph unicode="V" horiz-adv-x="1318" d="M143 1434h355l204 -1012l416 1012h361l-670 -1434h-305z" />
<glyph unicode="W" horiz-adv-x="2119" d="M150 1434h350l194 -940l389 940h256l195 -940l389 940h350l-657 -1434h-270l-189 901l-381 -901h-272z" />
<glyph unicode="X" horiz-adv-x="1247" d="M8 0l502 717l-350 717h364l201 -463l299 463h367l-502 -717l350 -717h-367l-200 461l-299 -461h-365z" />
<glyph unicode="Y" horiz-adv-x="1325" d="M160 1434h387l246 -564l321 564h367l-863 -1434h-366l321 539z" />
<glyph unicode="Z" horiz-adv-x="1294" d="M35 0l821 1155h-643l31 279h1171l-825 -1155h680l-29 -279h-1206z" />
<glyph unicode="[" horiz-adv-x="788" d="M90 -457l215 2044h529l-29 -272h-215l-158 -1501h215l-29 -271h-528z" />
<glyph unicode="\" horiz-adv-x="1005" d="M176 1524l266 108l543 -1671l-266 -108z" />
<glyph unicode="]" horiz-adv-x="788" d="M76 -457l28 271h215l158 1499h-215l29 274h528l-215 -2044h-528z" />
<glyph unicode="^" horiz-adv-x="1302" d="M152 614l571 922h178l381 -922h-305l-203 555l-323 -555h-299z" />
<glyph unicode="_" horiz-adv-x="1193" d="M16 -270l21 188h1106l-21 -188h-1106z" />
<glyph unicode="`" horiz-adv-x="1050" d="M305 1292l121 217l539 -262l-121 -217z" />
<glyph unicode="a" d="M121 442q0 119 42 223.5t113.5 181.5t167 121t201.5 44q115 0 190.5 -48.5t108.5 -117.5l14 141h314l-105 -987h-313l16 139q-47 -70 -134 -117t-197 -47q-92 0 -169 35t-132.5 97.5t-86 148.5t-30.5 186zM434 467q0 -92 56.5 -158.5t156.5 -66.5q55 0 103.5 22.5t84 60 t55 88t19.5 105.5q0 94 -56 160.5t-157 66.5q-55 0 -103 -22.5t-84 -61t-55.5 -89t-19.5 -105.5z" />
<glyph unicode="b" horiz-adv-x="1304" d="M133 0l152 1434h313l-63 -588q47 70 134 118t199 48q92 0 169 -35t132.5 -97.5t86 -148.5t30.5 -186q0 -119 -42 -223.5t-113.5 -181.5t-167 -121t-201.5 -44q-117 0 -193.5 48.5t-107.5 115.5l-15 -139h-313zM498 467q0 -92 55.5 -158.5t155.5 -66.5q55 0 103 22.5 t84 60t55.5 88t19.5 105.5q0 92 -55.5 159.5t-157.5 67.5q-55 0 -103.5 -22.5t-83 -61t-54 -89t-19.5 -105.5z" />
<glyph unicode="c" horiz-adv-x="1177" d="M117 442q0 111 39 213.5t113.5 182.5t185 128t254.5 48q121 0 209 -35t145 -93t84 -132q24 -67 24 -138v-16h-313q0 59 -40 103.5t-132 44.5q-66 0 -114 -24t-78.5 -63.5t-46 -90t-15.5 -105.5q0 -47 11.5 -88t36 -72t64.5 -48t97 -17q82 0 126 35.5t69 95.5h313 q-20 -86 -66.5 -159t-116 -126t-160.5 -83t-202 -30q-125 0 -216 38t-151.5 102.5t-90 149.5t-29.5 179z" />
<glyph unicode="d" d="M121 442q0 119 42 223.5t113.5 181.5t167 121t201.5 44q115 0 190.5 -48.5t108.5 -117.5l62 588h313l-152 -1434h-313l16 139q-47 -70 -134 -117t-197 -47q-92 0 -169 35t-132.5 97.5t-86 148.5t-30.5 186zM434 467q0 -92 56.5 -158.5t156.5 -66.5q55 0 103.5 22.5t84 60 t55 88t19.5 105.5q0 94 -56 160.5t-157 66.5q-55 0 -103 -22.5t-84 -61t-55.5 -89t-19.5 -105.5z" />
<glyph unicode="e" horiz-adv-x="1181" d="M117 436q0 119 40 223.5t113.5 183.5t180 125t241.5 46q113 0 201 -33t147.5 -89t91 -134t31.5 -168q0 -47 -8 -87t-20 -85h-711q0 -10 -1 -20q0 -30 5 -60q6 -39 27.5 -69.5t60.5 -50t102 -19.5q86 0 130.5 32.5t66.5 79.5h307q-18 -70 -62 -131t-111.5 -107t-155.5 -73 t-195 -27q-119 0 -209 34t-150.5 95.5t-91 146.5t-30.5 187zM442 598h414q2 16 2 31q0 79 -44 123q-52 54 -140 53q-88 0 -154.5 -52.5t-77.5 -154.5z" />
<glyph unicode="f" horiz-adv-x="778" d="M113 754l24 233h178l9 86q12 135 57 211t103.5 115t122 48t114.5 9q72 0 114 -8t70 -18l-24 -226q-23 6 -44.5 9.5t-54.5 3.5q-25 0 -49 -3.5t-43.5 -16.5t-34 -37.5t-18.5 -67.5l-10 -105h231l-24 -233h-230l-80 -754h-313l80 754h-178z" />
<glyph unicode="g" horiz-adv-x="1296" d="M78 -76h313q0 -68 49 -117t158 -49t178.5 56.5t79.5 167.5l16 165q-47 -66 -132 -109.5t-195 -43.5q-94 0 -172 32.5t-134.5 93t-87 143.5t-30.5 186q0 117 41 219t112.5 179t167 121t205.5 44q117 0 191.5 -47t107.5 -119l15 141h313l-103 -981q-14 -135 -62 -224 t-132 -149q-76 -53 -175.5 -79.5t-230.5 -26.5q-145 0 -235 30.5t-146 84.5q-61 57 -90 132q-23 61 -23 124q0 13 1 26zM436 467q0 -92 56.5 -158.5t156.5 -66.5q55 0 103.5 22.5t83 60t55 88t20.5 105.5q0 92 -56.5 159.5t-156.5 67.5q-55 0 -103 -22.5t-84 -61t-55.5 -89 t-19.5 -105.5z" />
<glyph unicode="h" horiz-adv-x="1222" d="M133 0l152 1434h303l-64 -590q51 78 137.5 123t202.5 45q98 0 158.5 -31t95.5 -82q42 -59 50 -134q4 -33 3 -71q0 -50 -6 -110l-61 -584h-303l53 506q2 26 2 49q0 73 -22 123q-30 68 -127 67q-98 0 -152.5 -67.5t-67.5 -181.5l-51 -496h-303z" />
<glyph unicode="i" horiz-adv-x="579" d="M133 0l105 987h313l-105 -987h-313zM225 1298q0 45 17.5 84t48.5 68t70.5 46t84.5 17q82 0 133.5 -52t51.5 -128q0 -45 -18.5 -84t-49.5 -68.5t-70.5 -47t-84.5 -17.5q-82 0 -132.5 53t-50.5 129z" />
<glyph unicode="j" horiz-adv-x="579" d="M-76 -446l25 239q29 -4 45 -5t35 -1q80 0 92 100l115 1100h315l-121 -1141q-10 -94 -37.5 -155.5t-68.5 -97t-94.5 -50t-114.5 -14.5q-53 0 -108.5 7t-82.5 18zM225 1298q0 45 17.5 84t48.5 68t70.5 46t84.5 17q82 0 133.5 -52t51.5 -128q0 -45 -18.5 -84t-49.5 -68.5 t-70.5 -47t-84.5 -17.5q-82 0 -132.5 53t-50.5 129z" />
<glyph unicode="k" horiz-adv-x="1134" d="M133 0l152 1434h313l-92 -865l350 418h373l-438 -493l331 -494h-372l-261 414l-43 -414h-313z" />
<glyph unicode="l" horiz-adv-x="579" d="M133 0l152 1434h313l-152 -1434h-313z" />
<glyph unicode="m" horiz-adv-x="1798" d="M133 0l105 987h303l-17 -143q43 72 122 120t192 48q111 0 179 -49.5t91 -128.5q51 82 135 130t205 48q100 0 161.5 -34t93.5 -90q32 -58 38 -130q3 -31 2 -63q0 -43 -4 -87l-64 -608h-301l56 532q2 25 2 47q0 67 -22 109q-30 56 -110 57q-72 0 -124 -53t-68 -196 l-51 -496h-303l55 535q3 26 3 49q0 65 -22 106q-28 55 -108 55q-35 0 -66.5 -12t-58.5 -41.5t-44 -79t-26 -123.5l-51 -489h-303z" />
<glyph unicode="n" horiz-adv-x="1243" d="M133 0l105 987h313l-16 -143q51 80 138 124t204 44q88 0 155.5 -27t108.5 -86q41 -57 48 -132q3 -31 2 -67q0 -52 -5 -114l-62 -586h-313l53 506q2 26 2 49q0 73 -22 123q-30 68 -127 67q-98 0 -152.5 -67.5t-66.5 -181.5l-52 -496h-313z" />
<glyph unicode="o" horiz-adv-x="1226" d="M115 446q0 113 43 216.5t122.5 181.5t190.5 124t246 46q121 0 214 -37t156.5 -101.5t96.5 -150.5t33 -184q0 -115 -43.5 -217.5t-123 -180t-190.5 -124t-246 -46.5q-121 0 -214 37t-156.5 101.5t-96 150.5t-32.5 184zM430 467q0 -92 54.5 -158.5t156.5 -66.5 q55 0 103.5 22.5t84 60t55 88t19.5 105.5q0 94 -56 160.5t-157 66.5q-57 0 -104 -22.5t-82 -60t-54.5 -89t-19.5 -106.5z" />
<glyph unicode="p" horiz-adv-x="1304" d="M86 -446l152 1433h313l-16 -141q47 70 134 118t199 48q92 0 169 -35t132.5 -97.5t86 -148.5t30.5 -186q0 -119 -42 -223.5t-113.5 -181.5t-167 -121t-201.5 -44q-119 0 -194.5 50.5t-106.5 115.5l-62 -587h-313zM496 469q0 -94 56 -160.5t157 -66.5q55 0 103 22.5t84 60 t55.5 88t19.5 105.5q0 94 -55.5 160.5t-155.5 66.5q-55 0 -104.5 -22.5t-84 -60t-55 -88t-20.5 -105.5z" />
<glyph unicode="q" horiz-adv-x="1304" d="M123 442q0 119 42 223.5t113.5 181.5t167 121t201.5 44q115 0 190.5 -48.5t110.5 -117.5l15 141h311l-150 -1433h-311l61 587q-47 -70 -135 -118t-198 -48q-92 0 -169 36t-132.5 98.5t-86 147.5t-30.5 185zM438 469q0 -94 55.5 -160.5t155.5 -66.5q55 0 104.5 22.5t84 60 t55 88t20.5 105.5q0 94 -57.5 160.5t-157.5 66.5q-55 0 -103 -22.5t-83 -60t-54.5 -88t-19.5 -105.5z" />
<glyph unicode="r" horiz-adv-x="854" d="M133 0l105 987h313l-19 -160q20 35 54.5 67t76.5 56.5t92 39t103 14.5q49 0 88 -17l-31 -285q-31 8 -53 11.5t-51 3.5q-141 0 -223 -78t-101 -254l-41 -385h-313z" />
<glyph unicode="s" horiz-adv-x="1044" d="M102 330h308q-2 -15 -2 -29q0 -56 32 -83q40 -34 111 -34q61 0 100 23.5t39 73.5q0 27 -13 44t-42 30.5t-77 28.5t-116 40q-57 18 -108 37.5t-89 48.5t-59.5 72t-21.5 108q0 82 34.5 142.5t96 100.5t145.5 60.5t183 20.5q223 0 319 -92q85 -82 85 -210q0 -16 -1 -32h-309 q1 11 1 20q0 47 -24 75q-28 34 -92 34q-51 0 -89 -22.5t-38 -69.5q0 -27 15.5 -43.5t45 -29.5t74 -27.5t103.5 -34.5q63 -18 116.5 -39t92.5 -50.5t59 -72.5t20 -109q0 -90 -38.5 -153.5t-103 -104.5t-151.5 -60.5t-182 -19.5q-210 -1 -326 89q-100 77 -100 222q0 22 2 46z " />
<glyph unicode="t" horiz-adv-x="784" d="M115 754l24 233h156l31 293h311l-31 -293h225l-24 -233h-225l-37 -353q-3 -26 -3 -47q0 -24 4 -42q7 -32 24.5 -50t43 -23.5t54.5 -5.5q23 0 54.5 1.5t53.5 5.5l-26 -240q-35 -6 -89.5 -11t-125.5 -5q-53 0 -114 8t-108 42t-73 104q-18 49 -19 122q0 33 4 72l45 422h-155 z" />
<glyph unicode="u" horiz-adv-x="1243" d="M158 220q-2 28 -2 61q0 54 6 120l61 586h312l-54 -506q-2 -26 -2 -50q1 -73 23 -123q30 -66 129 -66q98 0 151.5 67.5t65.5 182.5l51 495h313l-102 -987h-313l14 141q-49 -78 -137 -122t-205 -44q-98 0 -162.5 30t-101.5 83q-41 57 -47 132z" />
<glyph unicode="v" horiz-adv-x="1128" d="M100 987h328l174 -620l307 620h328l-551 -987h-250z" />
<glyph unicode="w" horiz-adv-x="1644" d="M102 987h324l121 -588l235 588h289l113 -588l243 588h324l-473 -987h-254l-133 629l-270 -629h-254z" />
<glyph unicode="x" horiz-adv-x="1052" d="M2 0l393 498l-282 489h362l125 -278l186 278h363l-383 -489l285 -498h-363l-131 287l-192 -287h-363z" />
<glyph unicode="y" horiz-adv-x="1259" d="M113 -76h313v-13q0 -71 41 -113q45 -46 139 -46q82 0 137.5 44t67.5 159l23 203q-51 -80 -136.5 -123t-197.5 -43q-188 0 -273 119q-41 57 -47 129q-2 26 -2 58q0 52 6 118l60 571h311l-53 -506q-2 -26 -2 -50q0 -72 22 -123q31 -66 129 -66t151.5 67.5t65.5 182.5 l52 495h313l-107 -1012q-12 -117 -54 -197.5t-120 -139.5q-57 -43 -151 -80t-223 -37q-125 0 -219.5 34.5t-141.5 73.5t-82 116q-26 56 -26 126q0 25 4 53z" />
<glyph unicode="z" horiz-adv-x="983" d="M37 0l512 721h-410l29 266h893l-510 -721h420l-29 -266h-905z" />
<glyph unicode="{" horiz-adv-x="976" d="M166 410l29 276q29 0 61.5 8t61 27.5t49 51.5t24.5 77l43 410q8 80 40 141t81 102t111.5 62.5t132.5 21.5h207l-27 -254h-86q-41 0 -68.5 -14t-46 -38t-29 -53.5t-12.5 -60.5l-41 -385q-6 -66 -33.5 -109.5t-63.5 -70.5t-71.5 -39t-58.5 -14q23 -4 56.5 -14.5t62 -38 t47 -73.5t10.5 -120l-35 -342q-4 -29 0 -58.5t17.5 -53t38 -39t65.5 -15.5h86l-24 -252h-207q-70 0 -128.5 20.5t-99.5 62.5t-60 102.5t-11 140.5l39 367q6 49 -8.5 81.5t-38 53t-54 30t-59.5 9.5z" />
<glyph unicode="|" horiz-adv-x="587" d="M119 -457l215 2044h260l-215 -2044h-260z" />
<glyph unicode="}" horiz-adv-x="976" d="M90 -457l27 252h84q41 0 69.5 15.5t47 39t26.5 53t12 58.5l37 342q8 74 36 120t62.5 73.5t70.5 38t61 14.5q-23 2 -57 14t-62.5 39t-47 71t-12.5 109l39 385q2 31 0 60.5t-15 53.5t-39 38t-67 14h-83l26 254h207q70 0 128 -21.5t98 -62.5t59.5 -102.5t11.5 -140.5 l-43 -410q-4 -45 9 -77t38 -51.5t55.5 -27.5t59.5 -8l-31 -276q-27 0 -58.5 -8.5t-61 -29t-50 -54t-27.5 -82.5l-36 -367q-8 -80 -41 -140.5t-82 -102.5t-111.5 -62.5t-132.5 -20.5h-207z" />
<glyph unicode="~" horiz-adv-x="1150" d="M113 395l26 246q63 68 134 94.5t130 26.5t125 -19.5t131 -46.5q76 -29 133.5 -51t110.5 -22q70 0 136.5 35.5t113.5 76.5l-25 -246q-63 -68 -132.5 -94t-133.5 -26q-66 0 -121 20.5t-110 46.5q-59 29 -122 50.5t-130 21.5q-86 0 -147.5 -35t-118.5 -78z" />
<glyph unicode="&#xa1;" horiz-adv-x="692" d="M133 -446l98 931h336l-98 -931h-336zM223 788q0 45 18.5 86t50.5 72t73 49.5t88 18.5q84 0 137 -55.5t53 -133.5q0 -45 -18.5 -86t-51 -71.5t-74.5 -49t-87 -18.5q-84 0 -136.5 55t-52.5 133z" />
<glyph unicode="&#xa2;" horiz-adv-x="1241" d="M158 600q0 100 33.5 195.5t97 172t156 129t210.5 68.5l25 226h182l-24 -226q100 -12 170.5 -50t116.5 -93t66.5 -124t20.5 -140h-313q0 59 -40 103t-132 44q-66 0 -114 -23.5t-78.5 -63.5t-46 -91t-15.5 -106q0 -94 48 -159t161 -65q80 0 124 35t71 96h313 q-18 -76 -56 -141t-96.5 -117.5t-135.5 -86t-173 -46.5l-22 -223h-183l23 223q-98 12 -171 54t-121 104.5t-72.5 140.5t-24.5 164z" />
<glyph unicode="&#xa3;" horiz-adv-x="1286" d="M125 0l25 225q33 29 56 76t36 113q12 43 21 100t18 111h-144l19 180h143l23 219q12 94 58 175t119.5 140.5t170 92t207.5 32.5q115 0 206 -35.5t152 -99t89 -151.5t17 -191h-331q8 84 -30 140.5t-134 56.5q-82 0 -133 -42t-60 -118l-22 -219h297l-19 -180h-297 q-6 -51 -14 -105.5t-18 -95.5q-10 -55 -24.5 -96t-31.5 -60h645l-28 -268h-1016z" />
<glyph unicode="&#xa4;" horiz-adv-x="1550" d="M182 309l166 148q-33 53 -49 119.5t-16 134.5q0 98 33.5 185t91.5 163l-129 147l155 144l135 -152q66 41 141.5 62.5t159.5 21.5t154 -21.5t129 -62.5l166 152l129 -144l-166 -149q35 -53 51.5 -119t16.5 -135q0 -195 -129 -348l131 -146l-156 -143l-135 149 q-131 -78 -297 -77q-86 0 -156.5 20.5t-130.5 58.5l-166 -151zM580 733q0 -94 54.5 -160.5t156.5 -66.5q57 0 105 22.5t83 60.5t55.5 89t20.5 106q0 94 -56.5 160t-158.5 66q-57 0 -104.5 -22.5t-82.5 -60.5t-54 -88.5t-19 -105.5z" />
<glyph unicode="&#xa5;" horiz-adv-x="1290" d="M104 1434h385l250 -564l365 564h385l-569 -807h237l-20 -181h-283l-12 -116h282l-18 -180h-283l-16 -150h-315l16 150h-279l19 180h278l13 116h-279l21 181h225z" />
<glyph unicode="&#xa6;" horiz-adv-x="587" d="M117 -457l94 901h262l-94 -901h-262zM238 698l94 889h262l-94 -889h-262z" />
<glyph unicode="&#xa7;" horiz-adv-x="1177" d="M90 0h285q-10 -96 38 -152.5t140 -56.5q39 0 76 11.5t64.5 32t44 50t16.5 66.5q0 68 -52.5 104.5t-138.5 67.5q-90 33 -168 65.5t-137 76.5t-93 104.5t-34 146.5q0 117 65.5 206t196.5 132q-131 90 -131 258q0 98 43 173t113.5 126t162 78t187.5 27q109 0 192.5 -32 t138 -88.5t78 -132t15.5 -163.5h-281q10 92 -36 146t-136 54q-37 0 -71.5 -10t-62 -29.5t-44 -48t-16.5 -65.5q0 -70 53 -106.5t129 -63.5q78 -29 157 -59.5t142.5 -73.5t103 -104.5t39.5 -149.5q0 -66 -22.5 -124t-59 -103.5t-85 -76t-99.5 -42.5q66 -45 100.5 -110.5 t34.5 -151.5q0 -94 -41 -171t-111.5 -130.5t-163.5 -83t-196 -29.5q-104 0 -190 30.5t-144.5 87t-85 136.5t-16.5 178zM401 561q0 -84 84 -135q39 -23 91.5 -42t103.5 -36q43 2 82 17.5t69.5 41t49 60.5t18.5 78q0 41 -17.5 68.5t-52.5 50.5q-37 23 -93 42t-122 42 q-41 -2 -78.5 -15.5t-67.5 -37t-48.5 -57.5t-18.5 -77z" />
<glyph unicode="&#xa8;" horiz-adv-x="1191" d="M297 1247q0 41 16.5 78t45 64.5t66.5 44t79 16.5q76 0 124 -49t48 -121q0 -41 -16.5 -78t-45 -64.5t-66.5 -44t-81 -16.5q-76 0 -123 49t-47 121zM788 1247q0 41 16.5 78t45.5 64.5t66.5 44t80.5 16.5q76 0 123 -49t47 -121q0 -41 -16 -78t-45 -64.5t-65.5 -44 t-79.5 -16.5q-78 0 -125.5 49t-47.5 121z" />
<glyph unicode="&#xa9;" horiz-adv-x="1654" d="M139 645q0 160 60.5 308.5t170 263t264 184t343.5 69.5q168 0 297 -56t217 -149.5t132 -217t44 -259.5q0 -160 -60.5 -308t-170 -263t-264.5 -184.5t-343 -69.5q-170 0 -298 56.5t-216 149.5t-132 217t-44 259zM342 659q0 -104 33 -199t96.5 -168t157.5 -116t217 -43 q137 0 251.5 54.5t195.5 143.5t126 204.5t45 238.5q0 104 -32.5 199.5t-96 168t-158 115.5t-216.5 43q-139 0 -253 -54t-195 -143t-126 -205t-45 -239zM498 680q0 86 31.5 166t91 141.5t143.5 98t190 36.5q88 0 155 -26.5t110 -70.5t65.5 -101.5t22.5 -120.5h-193 q-10 66 -54 109.5t-128 43.5q-57 0 -102.5 -22.5t-77 -59t-48 -84t-16.5 -96.5q0 -90 52.5 -152.5t148.5 -62.5q72 0 125 36t76 89h196q-18 -61 -55 -114.5t-91.5 -93.5t-122 -62.5t-145.5 -22.5q-90 0 -160.5 30t-117.5 80t-71.5 116.5t-24.5 142.5z" />
<glyph unicode="&#xaa;" d="M121 442q0 119 42 223.5t113.5 181.5t167 121t201.5 44q115 0 190.5 -48.5t108.5 -117.5l14 141h314l-105 -987h-313l16 139q-47 -70 -134 -117t-197 -47q-92 0 -169 35t-132.5 97.5t-86 148.5t-30.5 186zM434 467q0 -92 56.5 -158.5t156.5 -66.5q55 0 103.5 22.5t84 60 t55 88t19.5 105.5q0 94 -56 160.5t-157 66.5q-55 0 -103 -22.5t-84 -61t-55.5 -89t-19.5 -105.5z" />
<glyph unicode="&#xab;" horiz-adv-x="1048" d="M129 514l16 164l476 354l-29 -272l-230 -164l195 -164l-29 -272zM580 514l16 164l475 354l-29 -272l-229 -164l195 -164l-29 -272z" />
<glyph unicode="&#xac;" horiz-adv-x="1255" d="M258 641l27 250h874l-65 -617h-267l39 367h-608z" />
<glyph unicode="&#xad;" horiz-adv-x="602" d="M113 483l20 199h479l-20 -199h-479z" />
<glyph unicode="&#xae;" horiz-adv-x="1654" d="M139 645q0 160 60.5 308.5t170 263t264 184t343.5 69.5q168 0 297 -56t217 -149.5t132 -217t44 -259.5q0 -160 -60.5 -308t-170 -263t-264.5 -184.5t-343 -69.5q-170 0 -298 56.5t-216 149.5t-132 217t-44 259zM342 659q0 -104 33 -199t96.5 -168t157.5 -116t217 -43 q137 0 251.5 54.5t195.5 143.5t126 204.5t45 238.5q0 104 -32.5 199.5t-96 168t-158 115.5t-216.5 43q-139 0 -253 -54t-195 -143t-126 -205t-45 -239zM569 336l84 803h363q61 0 109.5 -20.5t82 -56.5t52 -84t18.5 -104q0 -92 -51 -168.5t-137 -115.5l133 -254h-224 l-120 223h-91l-22 -223h-197zM805 719h133q59 0 96 43t37 100q0 49 -26.5 84t-77.5 35h-133z" />
<glyph unicode="&#xaf;" horiz-adv-x="1062" d="M305 1444l25 235h753l-24 -235h-754z" />
<glyph unicode="&#xb0;" horiz-adv-x="704" d="M162 1147q0 70 27.5 132t75.5 108.5t110.5 73t130.5 26.5q61 0 113.5 -21.5t90.5 -59.5t58 -90.5t20 -111.5q0 -72 -27.5 -133t-75.5 -107t-110.5 -73t-130.5 -27q-61 0 -113 21.5t-90 59.5t-58.5 90t-20.5 112zM356 1165q0 -45 31 -76.5t76 -31.5q51 0 91 38t40 91 q0 45 -31 77.5t-76 32.5q-51 0 -91 -39.5t-40 -91.5z" />
<glyph unicode="&#xb1;" horiz-adv-x="1255" d="M139 0l27 250h876l-26 -250h-877zM219 762l27 250h305l33 313h266l-33 -313h305l-26 -250h-305l-33 -313h-266l32 313h-305z" />
<glyph unicode="&#xb2;" horiz-adv-x="813" d="M178 645q10 100 34 168t55.5 114t73.5 76.5t89 57.5q43 25 78 43t59.5 37.5t37.5 41t13 50.5q0 35 -18 51t-49 16q-35 0 -60.5 -23.5t-31.5 -80.5h-219q4 47 26.5 93t62.5 82t98 58.5t138 22.5q53 0 102.5 -12.5t86.5 -38t58.5 -65.5t21.5 -95t-20.5 -98t-53.5 -77 t-74 -60.5t-82 -51.5q-49 -29 -78.5 -46t-46 -31.5t-22.5 -27.5t-8 -34h335l-18 -170h-588z" />
<glyph unicode="&#xb3;" horiz-adv-x="827" d="M193 911h219q-6 -53 14 -85.5t68 -32.5q49 0 73.5 32.5t24.5 73.5q0 78 -88 78h-84l16 162h84q61 0 81 25.5t20 62.5q0 41 -16.5 57t-51.5 16q-49 0 -68.5 -28.5t-23.5 -75.5h-219q4 47 23.5 93t57 82t97 58.5t143.5 22.5q57 0 107.5 -11t88.5 -35t59.5 -61.5t21.5 -89.5 q0 -82 -45 -134t-99 -68q47 -16 80 -60.5t33 -113.5q0 -61 -27.5 -108.5t-73.5 -79.5t-106.5 -48t-126.5 -16q-156 0 -226.5 80.5t-55.5 203.5z" />
<glyph unicode="&#xb4;" horiz-adv-x="1050" d="M248 1247l592 262l75 -217l-591 -262z" />
<glyph unicode="&#xb5;" horiz-adv-x="1255" d="M86 -446l152 1433h311l-55 -510q-10 -104 21.5 -169.5t127.5 -65.5q98 0 151.5 67.5t65.5 182.5l51 495h316l-105 -987h-313l14 141q-47 -72 -122.5 -112.5t-174.5 -48.5q-47 0 -84 12l-45 -438h-311z" />
<glyph unicode="&#xb6;" horiz-adv-x="1390" d="M135 1001q0 131 54.5 220.5t137.5 144.5t180 78.5t181 23.5h744l-25 -219h-115l-166 -1589h-245l166 1589h-181l-166 -1589h-247l100 950q-90 0 -167 26t-132 75t-87 121.5t-32 168.5z" />
<glyph unicode="&#xb7;" horiz-adv-x="606" d="M162 621q0 45 18.5 86t50 71.5t72.5 48t88 17.5q84 0 135.5 -54.5t51.5 -132.5q0 -45 -18.5 -86t-50.5 -71.5t-74 -48t-87 -17.5q-84 0 -135 54.5t-51 132.5z" />
<glyph unicode="&#xb8;" horiz-adv-x="968" d="M236 -281h151q4 -29 20.5 -45t45.5 -16q35 0 56 23.5t21 58.5q0 29 -17 47t-48 18q-39 0 -59 -32h-134l27 252h160l-15 -138q31 31 84 31q66 0 111 -46t45 -118q0 -41 -16.5 -81t-47 -72.5t-75.5 -52t-101 -19.5q-33 0 -69.5 9t-67.5 30.5t-51 58.5t-20 92z" />
<glyph unicode="&#xb9;" horiz-adv-x="610" d="M215 1143l16 147q59 0 98.5 9.5t62 28t33.5 45t15 61.5h189l-84 -789h-221l53 498h-162z" />
<glyph unicode="&#xba;" horiz-adv-x="1226" d="M115 446q0 113 43 216.5t122.5 181.5t190.5 124t246 46q121 0 214 -37t156.5 -101.5t96.5 -150.5t33 -184q0 -115 -43.5 -217.5t-123 -180t-190.5 -124t-246 -46.5q-121 0 -214 37t-156.5 101.5t-96 150.5t-32.5 184zM430 467q0 -92 54.5 -158.5t156.5 -66.5 q55 0 103.5 22.5t84 60t55 88t19.5 105.5q0 94 -56 160.5t-157 66.5q-57 0 -104 -22.5t-82 -60t-54.5 -89t-19.5 -106.5z" />
<glyph unicode="&#xbb;" horiz-adv-x="1048" d="M102 160l29 272l225 164l-190 164l29 272l399 -354l-19 -164zM553 160l29 272l225 164l-191 164l29 272l399 -354l-18 -164z" />
<glyph unicode="&#xbc;" horiz-adv-x="1955" d="M236 1143l16 147q59 0 98 9.5t62.5 28t35 45t15.5 61.5h188l-84 -789h-223l53 498h-161zM330 0l981 1544l205 -108l-981 -1545zM1190 205l61 583h219l-43 -403h115l23 205h219l-23 -205h86l-18 -180h-86l-23 -205h-219l23 205h-334z" />
<glyph unicode="&#xbd;" horiz-adv-x="1955" d="M248 1143l16 147q59 0 98 9.5t63 28t35 45t15 61.5h187l-84 -789h-222l54 498h-162zM340 0l983 1544l203 -108l-979 -1545zM1174 0q12 100 34.5 168t54 114t72.5 75.5t90 58.5q39 23 74 41t60.5 37.5t40 42t14.5 53.5q0 35 -18.5 50t-49.5 15q-35 0 -60.5 -23.5 t-31.5 -80.5h-219q4 47 25.5 93t61.5 82t99.5 58.5t137.5 22.5q53 0 102 -12.5t86 -38t58.5 -65.5t21.5 -95t-20.5 -98t-53.5 -77t-74 -61.5t-82 -50.5t-68.5 -40t-46 -32.5t-27.5 -31t-11 -35.5h336l-19 -170h-587z" />
<glyph unicode="&#xbe;" horiz-adv-x="1955" d="M164 911h219q-6 -53 14.5 -85.5t67.5 -32.5q49 0 72.5 32.5t23.5 73.5q0 37 -19.5 57.5t-66.5 20.5h-84l17 162h81q63 0 83 25.5t20 62.5q0 41 -16.5 57t-51.5 16q-49 0 -68.5 -28.5t-23.5 -75.5h-219q4 47 23.5 93t57.5 82t97.5 58.5t143.5 22.5q55 0 105 -11t88 -35 t59.5 -61.5t21.5 -91.5q0 -80 -45 -132t-98 -68q47 -16 79.5 -60.5t32.5 -113.5q0 -61 -26.5 -108.5t-71.5 -79.5t-104.5 -48t-126.5 -16q-158 0 -228.5 80.5t-56.5 203.5zM354 0l983 1544l203 -108l-979 -1545zM1200 205l62 583h219l-43 -403h114l23 205h219l-22 -205h86 l-19 -180h-86l-22 -205h-220l23 205h-334z" />
<glyph unicode="&#xbf;" horiz-adv-x="1110" d="M61 -100q0 84 29 147.5t69 111.5t85 80.5t78 57.5q45 33 73.5 59.5t45 54t25.5 59.5t13 75h328q-8 -66 -22.5 -119t-39 -98t-63.5 -83t-96 -75q-33 -23 -68 -47.5t-64.5 -54t-48 -67.5t-18.5 -83q0 -72 44 -105.5t110 -33.5q78 0 133 49t67 158h328q-10 -96 -52 -179 t-111.5 -144.5t-167 -97.5t-218.5 -36q-96 0 -179 23.5t-145.5 70.5t-98.5 115.5t-36 161.5zM457 797q0 45 18.5 87t51 73.5t75.5 50t90 18.5q86 0 139.5 -56t53.5 -136q0 -47 -18.5 -88t-51.5 -73t-75 -50.5t-89 -18.5q-43 0 -78.5 15.5t-61.5 42t-40 61.5t-14 74z" />
<glyph unicode="&#xc0;" horiz-adv-x="1351" d="M8 0l664 1434h305l366 -1434h-360l-37 174h-510l-74 -174h-354zM543 434h348l-109 590zM557 1772l121 217l539 -263l-123 -217z" />
<glyph unicode="&#xc1;" horiz-adv-x="1351" d="M8 0l664 1434h305l366 -1434h-360l-37 174h-510l-74 -174h-354zM524 1706l592 262l78 -217l-594 -262zM543 434h348l-109 590z" />
<glyph unicode="&#xc2;" horiz-adv-x="1351" d="M8 0l664 1434h305l366 -1434h-360l-37 174h-510l-74 -174h-354zM453 1698l434 336l368 -336l-174 -172l-221 219l-270 -217zM543 434h348l-109 590z" />
<glyph unicode="&#xc3;" horiz-adv-x="1351" d="M8 0l664 1434h305l366 -1434h-360l-37 174h-510l-74 -174h-354zM408 1751q66 84 144.5 120t158.5 36q57 0 98 -15.5t75 -33t64.5 -33t65.5 -15.5q47 0 81.5 28t67.5 67l148 -144q-66 -92 -148 -131t-164 -39q-57 0 -98 15.5t-75.5 33t-65.5 33t-66 15.5q-45 0 -77.5 -27 t-65.5 -68zM543 434h348l-109 590z" />
<glyph unicode="&#xc4;" horiz-adv-x="1351" d="M8 0l664 1434h305l366 -1434h-360l-37 174h-510l-74 -174h-354zM416 1729q0 43 17.5 80.5t47 66.5t67.5 45t81 16q78 0 128 -51t50 -125q0 -43 -17.5 -79.5t-47 -65.5t-68.5 -45.5t-82 -16.5q-78 0 -127 51.5t-49 123.5zM543 434h348l-109 590zM909 1729q0 43 17.5 80.5 t46 66.5t67.5 45t82 16q78 0 127 -51t49 -125q0 -43 -17 -79.5t-47 -65.5t-69 -45.5t-82 -16.5q-78 0 -126 51.5t-48 123.5z" />
<glyph unicode="&#xc5;" horiz-adv-x="1351" d="M8 0l664 1434h305l366 -1434h-360l-37 174h-510l-74 -174h-354zM543 434h348l-109 590zM586 1753q0 61 25.5 115.5t67.5 95.5t96.5 64.5t113.5 23.5q53 0 99 -20.5t80 -54t52.5 -81t18.5 -98.5q0 -59 -24.5 -113.5t-66.5 -95.5t-97.5 -64.5t-114.5 -23.5 q-55 0 -100.5 19.5t-79 54.5t-52 80t-18.5 98zM758 1767q0 -39 26.5 -66.5t67.5 -27.5q47 0 82 34t35 81q0 39 -27 67.5t-68 28.5q-47 0 -81.5 -34.5t-34.5 -82.5z" />
<glyph unicode="&#xc6;" horiz-adv-x="1882" d="M2 0l840 1434h1059l-29 -267h-543l-35 -325h543l-27 -260h-542l-33 -316h543l-29 -266h-875l19 176h-434l-97 -176h-360zM600 436h320l73 701z" />
<glyph unicode="&#xc7;" horiz-adv-x="1613" d="M137 647q0 158 59.5 306.5t169 263t266 184t353.5 69.5q160 0 282 -47t204.5 -128t124.5 -188.5t44 -229.5h-346q-10 133 -97 213.5t-241 80.5q-111 0 -199.5 -42t-151 -112.5t-95.5 -160.5t-33 -184q0 -86 26.5 -161t78 -130t124 -87t162.5 -32q141 0 240.5 70.5 t144.5 181.5h353q-31 -109 -95.5 -204t-156.5 -168.5t-208 -120t-251 -54.5l-10 -82q31 31 92 31q70 0 110.5 -44t40.5 -112q0 -41 -16 -80.5t-48 -70.5t-76 -49.5t-99 -18.5q-29 0 -65 7.5t-68.5 26.5t-54 55t-23.5 94h151q10 -53 66 -54q35 0 56.5 22.5t21.5 55.5 q0 29 -16.5 46.5t-45.5 17.5q-39 0 -63 -35h-133l20 192q-145 14 -256.5 73.5t-187.5 152t-115 208t-39 244.5z" />
<glyph unicode="&#xc8;" horiz-adv-x="1136" d="M137 0l152 1434h874l-28 -267h-543l-35 -325h543l-27 -260h-543l-32 -316h542l-28 -266h-875zM453 1753l120 217l539 -262l-121 -217z" />
<glyph unicode="&#xc9;" horiz-adv-x="1136" d="M137 0l152 1434h874l-28 -267h-543l-35 -325h543l-27 -260h-543l-32 -316h542l-28 -266h-875zM424 1733l592 262l76 -217l-592 -262z" />
<glyph unicode="&#xca;" horiz-adv-x="1136" d="M137 0l152 1434h874l-28 -267h-543l-35 -325h543l-27 -260h-543l-32 -316h542l-28 -266h-875zM358 1698l435 336l368 -336l-174 -172l-221 219l-268 -217z" />
<glyph unicode="&#xcb;" horiz-adv-x="1136" d="M137 0l152 1434h874l-28 -267h-543l-35 -325h543l-27 -260h-543l-32 -316h542l-28 -266h-875zM338 1729q0 43 17.5 80.5t47 66.5t67.5 45t81 16q78 0 128 -51t50 -125q0 -43 -17.5 -79.5t-47 -65.5t-68.5 -45.5t-82 -16.5q-78 0 -127 51.5t-49 123.5zM831 1729 q0 43 17.5 80.5t46.5 66.5t67.5 45t81.5 16q78 0 127.5 -51t49.5 -125q0 -43 -17.5 -79.5t-47.5 -65.5t-68.5 -45.5t-81.5 -16.5q-78 0 -126.5 51.5t-48.5 123.5z" />
<glyph unicode="&#xcc;" horiz-adv-x="610" d="M137 0l152 1434h336l-152 -1434h-336zM158 1751l121 217l538 -262l-123 -217z" />
<glyph unicode="&#xcd;" horiz-adv-x="610" d="M137 0l152 1434h336l-152 -1434h-336zM154 1706l591 262l76 -217l-594 -262z" />
<glyph unicode="&#xce;" horiz-adv-x="610" d="M84 1698l434 336l369 -336l-174 -172l-224 219l-266 -217zM137 0l150 1434h336l-150 -1434h-336z" />
<glyph unicode="&#xcf;" horiz-adv-x="610" d="M59 1729q0 43 17.5 80.5t47.5 66.5t67.5 45t80.5 16q78 0 128.5 -51t50.5 -125q0 -43 -17.5 -79.5t-47.5 -65.5t-68.5 -45.5t-81.5 -16.5q-78 0 -127.5 51.5t-49.5 123.5zM137 0l152 1434h336l-152 -1434h-336zM553 1729q0 43 17.5 80.5t46 66.5t67.5 45t82 16 q78 0 127 -51t49 -125q0 -43 -17.5 -79.5t-47 -65.5t-68.5 -45.5t-82 -16.5q-78 0 -126 51.5t-48 123.5z" />
<glyph unicode="&#xd0;" horiz-adv-x="1474" d="M-6 627l18 182h209l66 625h526q164 0 290 -54.5t212 -145.5t130 -209t44 -245q0 -147 -57.5 -287.5t-165 -250t-260 -176t-342.5 -66.5h-527l66 627h-209zM500 287h178q109 0 196 40t148 106.5t94 150.5t33 174q0 76 -24.5 146.5t-72.5 123.5t-120 86t-164 33h-178 l-37 -338h213l-18 -182h-213z" />
<glyph unicode="&#xd1;" horiz-adv-x="1468" d="M137 0l152 1434h346l420 -934l98 934h330l-152 -1434h-346l-420 922l-96 -922h-332zM449 1751q66 84 144.5 120t158.5 36q57 0 98 -15.5t74.5 -33t64.5 -33t66 -15.5q47 0 81.5 28t67.5 67l148 -144q-66 -92 -148 -131t-164 -39q-57 0 -98 15.5t-76 33t-65.5 33 t-65.5 15.5q-45 0 -77.5 -27t-65.5 -68z" />
<glyph unicode="&#xd2;" horiz-adv-x="1648" d="M137 645q0 160 60.5 308.5t170 263t263 184t342.5 69.5q168 0 297 -56t217 -149.5t132 -217t44 -259.5q0 -160 -60.5 -308t-170 -264t-263.5 -184.5t-342 -68.5q-170 0 -298 56.5t-216 149.5t-132 217t-44 259zM479 670q0 -80 24.5 -154t73 -130t118 -90t161.5 -34 q104 0 190.5 43t148.5 112.5t96 160t34 186.5q0 80 -24.5 153.5t-72.5 130t-119 90t-163 33.5q-104 0 -190 -42t-147.5 -112.5t-95.5 -160.5t-34 -186zM655 1778l121 217l537 -262l-121 -217z" />
<glyph unicode="&#xd3;" horiz-adv-x="1648" d="M137 645q0 160 60.5 308.5t170 263t263 184t342.5 69.5q168 0 297 -56t217 -149.5t132 -217t44 -259.5q0 -160 -60.5 -308t-170 -264t-263.5 -184.5t-342 -68.5q-170 0 -298 56.5t-216 149.5t-132 217t-44 259zM479 670q0 -80 24.5 -154t73 -130t118 -90t161.5 -34 q104 0 190.5 43t148.5 112.5t96 160t34 186.5q0 80 -24.5 153.5t-72.5 130t-119 90t-163 33.5q-104 0 -190 -42t-147.5 -112.5t-95.5 -160.5t-34 -186zM694 1733l594 262l76 -217l-594 -262z" />
<glyph unicode="&#xd4;" horiz-adv-x="1648" d="M137 645q0 160 60.5 308.5t170 263t263 184t342.5 69.5q168 0 297 -56t217 -149.5t132 -217t44 -259.5q0 -160 -60.5 -308t-170 -264t-263.5 -184.5t-342 -68.5q-170 0 -298 56.5t-216 149.5t-132 217t-44 259zM479 670q0 -80 24.5 -154t73 -130t118 -90t161.5 -34 q104 0 190.5 43t148.5 112.5t96 160t34 186.5q0 80 -24.5 153.5t-72.5 130t-119 90t-163 33.5q-104 0 -190 -42t-147.5 -112.5t-95.5 -160.5t-34 -186zM606 1698l434 336l369 -336l-174 -172l-223 219l-269 -217z" />
<glyph unicode="&#xd5;" horiz-adv-x="1648" d="M137 645q0 160 60.5 308.5t170 263t263 184t342.5 69.5q168 0 297 -56t217 -149.5t132 -217t44 -259.5q0 -160 -60.5 -308t-170 -264t-263.5 -184.5t-342 -68.5q-170 0 -298 56.5t-216 149.5t-132 217t-44 259zM479 670q0 -80 24.5 -154t73 -130t118 -90t161.5 -34 q104 0 190.5 43t148.5 112.5t96 160t34 186.5q0 80 -24.5 153.5t-72.5 130t-119 90t-163 33.5q-104 0 -190 -42t-147.5 -112.5t-95.5 -160.5t-34 -186zM563 1751q66 84 144.5 120t158.5 36q57 0 98.5 -15.5t75 -33t64 -33t65.5 -15.5q47 0 83 28t67 67l149 -144 q-66 -92 -148.5 -131t-164.5 -39q-57 0 -98 15.5t-76 33t-65.5 33t-65.5 15.5q-45 0 -78 -27t-65 -68z" />
<glyph unicode="&#xd6;" horiz-adv-x="1648" d="M137 645q0 160 60.5 308.5t170 263t263 184t342.5 69.5q168 0 297 -56t217 -149.5t132 -217t44 -259.5q0 -160 -60.5 -308t-170 -264t-263.5 -184.5t-342 -68.5q-170 0 -298 56.5t-216 149.5t-132 217t-44 259zM479 670q0 -80 24.5 -154t73 -130t118 -90t161.5 -34 q104 0 190.5 43t148.5 112.5t96 160t34 186.5q0 80 -24.5 153.5t-72.5 130t-119 90t-163 33.5q-104 0 -190 -42t-147.5 -112.5t-95.5 -160.5t-34 -186zM565 1733q0 43 17.5 80.5t47 66.5t67.5 45.5t81 16.5q78 0 127 -51.5t49 -125.5q0 -43 -17 -79.5t-47 -65.5t-69 -45 t-82 -16q-78 0 -126 51t-48 123zM1059 1733q0 43 17.5 80.5t46 66.5t67.5 45.5t82 16.5q78 0 127 -51.5t49 -123.5q0 -43 -17.5 -80.5t-48 -66.5t-69.5 -45t-82 -16q-78 0 -125 51t-47 123z" />
<glyph unicode="&#xd7;" horiz-adv-x="1255" d="M262 369l244 219l-193 215l195 178l192 -215l246 221l168 -188l-244 -221l195 -216l-197 -176l-192 213l-246 -219z" />
<glyph unicode="&#xd8;" horiz-adv-x="1648" d="M137 647q0 158 60.5 306.5t170 263t264 184t345.5 69.5q59 0 110.5 -7t98.5 -19l92 172l158 -76l-86 -162q76 -43 135 -107.5t98 -141t59.5 -164.5t20.5 -179q0 -158 -59.5 -306t-170 -263t-265.5 -184.5t-345 -69.5q-125 0 -225 31l-98 -184l-160 73l98 180 q-147 90 -224 247t-77 337zM479 670q0 -90 31 -173t90 -139l430 801q-37 12 -84 12q-104 0 -190 -42t-147.5 -112.5t-95.5 -160.5t-34 -186zM754 274q20 -6 47.5 -9t54.5 -3q104 0 190.5 42t147.5 111.5t96 159t35 185.5t-36 183t-101 142z" />
<glyph unicode="&#xd9;" horiz-adv-x="1345" d="M166 489l98 945h332l-98 -942q-6 -49 6 -93.5t37.5 -77t65.5 -52t91 -19.5t94.5 19.5t77 52t54 76.5t26.5 94l99 942h331l-98 -945q-12 -111 -61.5 -207t-129 -166.5t-187 -111.5t-236.5 -41t-227.5 41t-163 111.5t-94 167t-17.5 206.5zM547 1778l121 217l538 -262 l-121 -217z" />
<glyph unicode="&#xda;" horiz-adv-x="1345" d="M166 489l98 945h332l-98 -942q-6 -49 6 -93.5t37.5 -77t65.5 -52t91 -19.5t94.5 19.5t77 52t54 76.5t26.5 94l99 942h331l-98 -945q-12 -111 -61.5 -207t-129 -166.5t-187 -111.5t-236.5 -41t-227.5 41t-163 111.5t-94 167t-17.5 206.5zM489 1733l592 262l76 -217 l-592 -262z" />
<glyph unicode="&#xdb;" horiz-adv-x="1345" d="M166 489l98 945h332l-98 -942q-6 -49 6 -93.5t37.5 -77t65.5 -52t91 -19.5t94.5 19.5t77 52t54 76.5t26.5 94l99 942h331l-98 -945q-12 -111 -61.5 -207t-129 -166.5t-187 -111.5t-236.5 -41t-227.5 41t-163 111.5t-94 167t-17.5 206.5zM442 1698l437 336l366 -336 l-174 -172l-221 219l-268 -217z" />
<glyph unicode="&#xdc;" horiz-adv-x="1345" d="M166 489l98 945h332l-98 -942q-6 -49 6 -93.5t37.5 -77t65.5 -52t91 -19.5t94.5 19.5t77 52t54 76.5t26.5 94l99 942h331l-98 -945q-12 -111 -61.5 -207t-129 -166.5t-187 -111.5t-236.5 -41t-227.5 41t-163 111.5t-94 167t-17.5 206.5zM410 1729q0 43 17 80.5t47 66.5 t68 45t81 16q78 0 127 -51t49 -125q0 -43 -17.5 -79.5t-46 -65.5t-67.5 -45.5t-82 -16.5q-78 0 -127 51.5t-49 123.5zM903 1729q0 43 17.5 80.5t46 66.5t67.5 45t82 16q78 0 127 -51t49 -125q0 -43 -17.5 -79.5t-47 -65.5t-68.5 -45.5t-82 -16.5q-78 0 -126 51.5t-48 123.5z " />
<glyph unicode="&#xdd;" horiz-adv-x="1312" d="M160 1434h387l246 -564l321 564h367l-863 -1434h-366l321 539zM588 1726l592 263l75 -215l-591 -263z" />
<glyph unicode="&#xde;" horiz-adv-x="1103" d="M131 0l152 1434h303l-27 -236h90q121 0 212 -37t151.5 -98.5t91.5 -142t31 -168.5q0 -102 -40 -199.5t-116 -172.5t-185.5 -120t-246.5 -45h-90l-23 -215h-303zM483 475h90q59 0 106.5 21.5t80.5 57.5t50 81t17 94q0 41 -13 79t-38.5 66.5t-63.5 46t-89 17.5h-91z" />
<glyph unicode="&#xdf;" horiz-adv-x="1214" d="M111 0l106 1006q10 94 49 177t106.5 145.5t165 99t224.5 36.5q98 0 183 -22.5t148.5 -68.5t100.5 -114.5t37 -160.5q0 -70 -21.5 -127.5t-56.5 -101.5t-83 -74.5t-99 -49.5q88 -35 150.5 -113.5t62.5 -213.5q0 -104 -42 -187.5t-111.5 -140.5t-162 -87t-192.5 -30 q-59 0 -106.5 8.5t-75.5 18.5l26 244q29 -8 66 -12.5t59 -4.5q39 0 78 14.5t69.5 42t50 67.5t19.5 89q0 33 -10 67t-31.5 59.5t-57.5 42t-85 16.5h-60l27 249h55q57 0 97.5 16.5t65 44.5t35.5 61.5t11 68.5q0 78 -48 118t-116 40q-88 0 -141 -59.5t-63 -157.5l-107 -1006 h-323z" />
<glyph unicode="&#xe0;" d="M121 442q0 119 42 223.5t113.5 181.5t167 121t201.5 44q115 0 190.5 -48.5t108.5 -117.5l14 141h314l-105 -987h-313l16 139q-47 -70 -134 -117t-197 -47q-92 0 -169 35t-132.5 97.5t-86 148.5t-30.5 186zM383 1305l123 217l536 -262l-120 -218zM434 467 q0 -92 56.5 -158.5t156.5 -66.5q55 0 103.5 22.5t84 60t55 88t19.5 105.5q0 94 -56 160.5t-157 66.5q-55 0 -103 -22.5t-84 -61t-55.5 -89t-19.5 -105.5z" />
<glyph unicode="&#xe1;" d="M121 442q0 119 42 223.5t113.5 181.5t167 121t201.5 44q115 0 190.5 -48.5t108.5 -117.5l14 141h314l-105 -987h-313l16 139q-47 -70 -134 -117t-197 -47q-92 0 -169 35t-132.5 97.5t-86 148.5t-30.5 186zM385 1260l594 262l76 -217l-592 -263zM434 467 q0 -92 56.5 -158.5t156.5 -66.5q55 0 103.5 22.5t84 60t55 88t19.5 105.5q0 94 -56 160.5t-157 66.5q-55 0 -103 -22.5t-84 -61t-55.5 -89t-19.5 -105.5z" />
<glyph unicode="&#xe2;" d="M121 442q0 119 42 223.5t113.5 181.5t167 121t201.5 44q115 0 190.5 -48.5t108.5 -117.5l14 141h314l-105 -987h-313l16 139q-47 -70 -134 -117t-197 -47q-92 0 -169 35t-132.5 97.5t-86 148.5t-30.5 186zM375 1264l436 335l367 -335l-174 -172l-222 219l-266 -217z M434 467q0 -92 56.5 -158.5t156.5 -66.5q55 0 103.5 22.5t84 60t55 88t19.5 105.5q0 94 -56 160.5t-157 66.5q-55 0 -103 -22.5t-84 -61t-55.5 -89t-19.5 -105.5z" />
<glyph unicode="&#xe3;" d="M121 442q0 119 42 223.5t113.5 181.5t167 121t201.5 44q115 0 190.5 -48.5t108.5 -117.5l14 141h314l-105 -987h-313l16 139q-47 -70 -134 -117t-197 -47q-92 0 -169 35t-132.5 97.5t-86 148.5t-30.5 186zM356 1331q66 84 145 120t161 36q57 0 98 -14.5t74.5 -33 t64.5 -32.5t66 -14q47 0 81.5 26.5t65.5 67.5l150 -146q-66 -90 -148 -130t-164 -40q-55 0 -97 15.5t-77 33t-65.5 33t-65.5 15.5q-47 0 -81 -27t-64 -67zM434 467q0 -92 56.5 -158.5t156.5 -66.5q55 0 103.5 22.5t84 60t55 88t19.5 105.5q0 94 -56 160.5t-157 66.5 q-55 0 -103 -22.5t-84 -61t-55.5 -89t-19.5 -105.5z" />
<glyph unicode="&#xe4;" d="M121 442q0 119 42 223.5t113.5 181.5t167 121t201.5 44q115 0 190.5 -48.5t108.5 -117.5l14 141h314l-105 -987h-313l16 139q-47 -70 -134 -117t-197 -47q-92 0 -169 35t-132.5 97.5t-86 148.5t-30.5 186zM309 1274q0 43 17.5 81t47 66.5t68.5 45t82 16.5q78 0 126 -51.5 t48 -122.5q0 -43 -17 -81t-46 -66.5t-68 -45t-82 -16.5q-78 0 -127 51t-49 123zM434 467q0 -92 56.5 -158.5t156.5 -66.5q55 0 103.5 22.5t84 60t55 88t19.5 105.5q0 94 -56 160.5t-157 66.5q-55 0 -103 -22.5t-84 -61t-55.5 -89t-19.5 -105.5zM803 1274q0 43 17.5 81 t47 66.5t67.5 45t81 16.5q78 0 127 -51.5t49 -124.5q0 -43 -17.5 -80t-47 -65.5t-68.5 -45t-82 -16.5q-78 0 -126 51t-48 123z" />
<glyph unicode="&#xe5;" d="M121 442q0 119 42 223.5t113.5 181.5t167 121t201.5 44q115 0 190.5 -48.5t108.5 -117.5l14 141h314l-105 -987h-313l16 139q-47 -70 -134 -117t-197 -47q-92 0 -169 35t-132.5 97.5t-86 148.5t-30.5 186zM434 467q0 -92 56.5 -158.5t156.5 -66.5q55 0 103.5 22.5t84 60 t55 88t19.5 105.5q0 94 -56 160.5t-157 66.5q-55 0 -103 -22.5t-84 -61t-55.5 -89t-19.5 -105.5zM489 1341q0 63 26 119t69 96.5t99 65.5t118 25q55 0 102 -20.5t81 -55.5t53.5 -82t19.5 -100q0 -61 -25.5 -116.5t-68.5 -99t-100 -68t-118 -24.5q-55 0 -102 20.5t-81 56.5 t-53.5 83t-19.5 100zM653 1354q0 -45 31 -76t78 -31q53 0 92 39t39 92q0 45 -30 77t-77 32q-55 0 -94 -40t-39 -93z" />
<glyph unicode="&#xe6;" horiz-adv-x="1968" d="M121 442q0 119 42 223.5t113.5 181.5t167 121t201.5 44q115 0 190.5 -48.5t108.5 -117.5l14 141h283l-2 -24q53 23 115.5 37t134.5 14q106 0 192 -33t145.5 -90t91.5 -135t32 -168q0 -45 -7.5 -85t-19.5 -85h-709q-4 -45 3.5 -85t30 -70t61.5 -47t98 -17q84 0 128 32.5 t67 79.5h307q-20 -72 -65.5 -134t-113 -107t-154.5 -71t-187 -26q-78 0 -138.5 14.5t-109.5 39.5l-4 -27h-283l16 139q-47 -70 -134 -117t-197 -47q-92 0 -169 35t-132.5 97.5t-86 148.5t-30.5 186zM434 469q0 -94 56.5 -160.5t156.5 -66.5q55 0 103.5 22.5t84 60t55 88 t19.5 105.5q0 96 -57 161.5t-156 65.5q-57 0 -105 -22.5t-83 -61t-54.5 -88t-19.5 -104.5zM1235 598h407q10 88 -40 141.5t-142 53.5q-86 0 -149.5 -50.5t-75.5 -144.5z" />
<glyph unicode="&#xe7;" horiz-adv-x="1177" d="M117 442q0 109 39 212.5t113.5 183.5t185 128t254.5 48q123 0 211 -35t144 -93.5t83 -132t24 -153.5h-313q0 59 -40 103.5t-132 44.5q-66 0 -114 -24t-78.5 -63.5t-46 -90t-15.5 -105.5q0 -47 11.5 -88t36 -72t64.5 -48t97 -17q82 0 126 35.5t69 95.5h313 q-20 -80 -61 -149.5t-104.5 -122t-148.5 -85t-192 -39.5l-8 -86q35 31 90 31q70 0 111 -44t41 -112q0 -41 -16.5 -79.5t-47.5 -69.5t-75 -50.5t-99 -19.5q-29 0 -64.5 7.5t-68.5 27t-54.5 55t-23.5 93.5h152q10 -53 63 -54q35 0 57.5 22.5t22.5 55.5q0 27 -16.5 45.5 t-44.5 18.5q-23 0 -39.5 -10.5t-26.5 -24.5h-133l20 203q-92 16 -160.5 58t-114.5 103.5t-68.5 137t-22.5 159.5z" />
<glyph unicode="&#xe8;" horiz-adv-x="1181" d="M117 436q0 119 40 223.5t113.5 183.5t180 125t241.5 46q113 0 201 -33t147.5 -89t91 -134t31.5 -168q0 -47 -8 -87t-20 -85h-711q-2 -41 4 -80t27.5 -69.5t60.5 -50t102 -19.5q86 0 130.5 32.5t66.5 79.5h307q-18 -70 -62 -131t-111.5 -107t-155.5 -73t-195 -27 q-119 0 -209 34t-150.5 95.5t-91 146.5t-30.5 187zM442 598h414q10 100 -42 153.5t-140 53.5t-154.5 -52.5t-77.5 -154.5zM442 1305l121 217l537 -262l-121 -218z" />
<glyph unicode="&#xe9;" horiz-adv-x="1181" d="M117 436q0 119 40 223.5t113.5 183.5t180 125t241.5 46q113 0 201 -33t147.5 -89t91 -134t31.5 -168q0 -47 -8 -87t-20 -85h-711q-2 -41 4 -80t27.5 -69.5t60.5 -50t102 -19.5q86 0 130.5 32.5t66.5 79.5h307q-18 -70 -62 -131t-111.5 -107t-155.5 -73t-195 -27 q-119 0 -209 34t-150.5 95.5t-91 146.5t-30.5 187zM377 1260l594 262l76 -217l-594 -263zM442 598h414q10 100 -42 153.5t-140 53.5t-154.5 -52.5t-77.5 -154.5z" />
<glyph unicode="&#xea;" horiz-adv-x="1181" d="M117 436q0 119 40 223.5t113.5 183.5t180 125t241.5 46q113 0 201 -33t147.5 -89t91 -134t31.5 -168q0 -47 -8 -87t-20 -85h-711q-2 -41 4 -80t27.5 -69.5t60.5 -50t102 -19.5q86 0 130.5 32.5t66.5 79.5h307q-18 -70 -62 -131t-111.5 -107t-155.5 -73t-195 -27 q-119 0 -209 34t-150.5 95.5t-91 146.5t-30.5 187zM330 1264l436 335l367 -335l-172 -172l-224 219l-268 -217zM442 598h414q10 100 -42 153.5t-140 53.5t-154.5 -52.5t-77.5 -154.5z" />
<glyph unicode="&#xeb;" horiz-adv-x="1181" d="M117 436q0 119 40 223.5t113.5 183.5t180 125t241.5 46q113 0 201 -33t147.5 -89t91 -134t31.5 -168q0 -47 -8 -87t-20 -85h-711q-2 -41 4 -80t27.5 -69.5t60.5 -50t102 -19.5q86 0 130.5 32.5t66.5 79.5h307q-18 -70 -62 -131t-111.5 -107t-155.5 -73t-195 -27 q-119 0 -209 34t-150.5 95.5t-91 146.5t-30.5 187zM283 1274q0 43 17 81t47 66.5t68 45t81 16.5q78 0 127 -51.5t49 -124.5q0 -43 -17.5 -80t-47 -65.5t-68.5 -45t-82 -16.5q-78 0 -126 51t-48 123zM442 598h414q10 100 -42 153.5t-140 53.5t-154.5 -52.5t-77.5 -154.5z M774 1274q0 43 17.5 81t47 66.5t68.5 45t82 16.5q78 0 126 -51.5t48 -124.5q0 -43 -16.5 -80t-46 -65.5t-68.5 -45t-82 -16.5q-78 0 -127 51t-49 123z" />
<glyph unicode="&#xec;" horiz-adv-x="579" d="M98 1331l121 217l539 -262l-121 -217zM133 0l103 987h313l-103 -987h-313z" />
<glyph unicode="&#xed;" horiz-adv-x="579" d="M94 1286l592 262l76 -217l-592 -262zM133 0l105 987h313l-105 -987h-313z" />
<glyph unicode="&#xee;" horiz-adv-x="579" d="M23 1264l436 335l366 -335l-174 -172l-223 219l-266 -217zM133 0l105 987h313l-105 -987h-313z" />
<glyph unicode="&#xef;" horiz-adv-x="579" d="M25 1274q0 43 17 81t47 66.5t68 45t81 16.5q78 0 128 -51.5t50 -124.5q0 -43 -17.5 -80t-48.5 -65.5t-69.5 -45t-81.5 -16.5q-78 0 -126 51t-48 123zM133 0l105 987h313l-105 -987h-313zM463 1274q0 43 17.5 81t47 66.5t67.5 45t81 16.5q78 0 127 -51.5t49 -122.5 q0 -43 -17.5 -81t-47 -66.5t-68.5 -45t-82 -16.5q-78 0 -126 51t-48 123z" />
<glyph unicode="&#xf0;" horiz-adv-x="1220" d="M111 428q0 113 47 202t122.5 159.5t173 122t199.5 87.5l13 5l-58 104l-209 -96l-55 155l184 84l-114 217h372l45 -92l179 82l55 -151l-154 -74l242 -447q29 -53 44 -118.5t15 -130.5q0 -115 -43 -217.5t-121.5 -180.5t-189.5 -124t-246 -46q-121 0 -214 38t-157.5 100.5 t-97 145.5t-32.5 175zM426 465q0 -94 54.5 -160.5t154.5 -66.5q57 0 105 22.5t83 60t55.5 89t20.5 106.5q0 94 -56.5 159.5t-156.5 65.5q-57 0 -104 -22.5t-82 -60t-54.5 -88t-19.5 -105.5z" />
<glyph unicode="&#xf1;" horiz-adv-x="1243" d="M133 0l105 987h313l-16 -143q51 80 138 124t204 44q88 0 155.5 -27t108.5 -86q41 -57 48 -132t-3 -181l-62 -586h-313l53 506q10 104 -20.5 171.5t-126.5 67.5q-98 0 -152.5 -67.5t-66.5 -181.5l-52 -496h-313zM322 1331q68 84 145.5 120t159.5 36q57 0 98 -14.5t75 -33 t64.5 -32.5t65.5 -14q47 0 83 26.5t64 67.5l152 -146q-61 -84 -142 -127t-172 -43q-55 0 -97 15.5t-75.5 33t-65.5 33t-67 15.5q-45 0 -77.5 -27t-67.5 -67z" />
<glyph unicode="&#xf2;" horiz-adv-x="1226" d="M115 446q0 113 43 216.5t122.5 181.5t190.5 124t246 46q121 0 214 -37t156.5 -101.5t96.5 -150.5t33 -184q0 -115 -43.5 -217.5t-123 -180t-190.5 -124t-246 -46.5q-121 0 -214 37t-156.5 101.5t-96 150.5t-32.5 184zM430 467q0 -92 54.5 -158.5t156.5 -66.5 q55 0 103.5 22.5t84 60t55 88t19.5 105.5q0 94 -56 160.5t-157 66.5q-57 0 -104 -22.5t-82 -60t-54.5 -89t-19.5 -106.5zM438 1305l121 217l539 -262l-121 -218z" />
<glyph unicode="&#xf3;" horiz-adv-x="1226" d="M115 446q0 113 43 216.5t122.5 181.5t190.5 124t246 46q121 0 214 -37t156.5 -101.5t96.5 -150.5t33 -184q0 -115 -43.5 -217.5t-123 -180t-190.5 -124t-246 -46.5q-121 0 -214 37t-156.5 101.5t-96 150.5t-32.5 184zM367 1260l591 262l78 -217l-592 -263zM430 467 q0 -92 54.5 -158.5t156.5 -66.5q55 0 103.5 22.5t84 60t55 88t19.5 105.5q0 94 -56 160.5t-157 66.5q-57 0 -104 -22.5t-82 -60t-54.5 -89t-19.5 -106.5z" />
<glyph unicode="&#xf4;" horiz-adv-x="1226" d="M115 446q0 113 43 216.5t122.5 181.5t190.5 124t246 46q121 0 214 -37t156.5 -101.5t96.5 -150.5t33 -184q0 -115 -43.5 -217.5t-123 -180t-190.5 -124t-246 -46.5q-121 0 -214 37t-156.5 101.5t-96 150.5t-32.5 184zM344 1264l434 335l369 -335l-174 -172l-223 219 l-267 -217zM430 467q0 -92 54.5 -158.5t156.5 -66.5q55 0 103.5 22.5t84 60t55 88t19.5 105.5q0 94 -56 160.5t-157 66.5q-57 0 -104 -22.5t-82 -60t-54.5 -89t-19.5 -106.5z" />
<glyph unicode="&#xf5;" horiz-adv-x="1226" d="M115 446q0 113 43 216.5t122.5 181.5t190.5 124t246 46q121 0 214 -37t156.5 -101.5t96.5 -150.5t33 -184q0 -115 -43.5 -217.5t-123 -180t-190.5 -124t-246 -46.5q-121 0 -214 37t-156.5 101.5t-96 150.5t-32.5 184zM303 1331q66 84 144.5 120t160.5 36q57 0 98.5 -14.5 t75 -33t63 -32.5t64.5 -14q47 0 82 26.5t68 67.5l149 -146q-63 -84 -144 -127t-171 -43q-55 0 -97 15.5t-76 33t-64.5 33t-65.5 15.5q-47 0 -81 -27t-65 -67zM430 467q0 -92 54.5 -158.5t156.5 -66.5q55 0 103.5 22.5t84 60t55 88t19.5 105.5q0 94 -56 160.5t-157 66.5 q-57 0 -104 -22.5t-82 -60t-54.5 -89t-19.5 -106.5z" />
<glyph unicode="&#xf6;" horiz-adv-x="1226" d="M115 446q0 113 43 216.5t122.5 181.5t190.5 124t246 46q121 0 214 -37t156.5 -101.5t96.5 -150.5t33 -184q0 -115 -43.5 -217.5t-123 -180t-190 -124t-246.5 -46.5q-121 0 -214 37t-156.5 101.5t-96 150.5t-32.5 184zM305 1274q0 43 17.5 81t47 66.5t67.5 45t81 16.5 q78 0 127 -51.5t49 -124.5q0 -43 -17.5 -80t-46 -65.5t-67.5 -45t-82 -16.5q-78 0 -127 51t-49 123zM430 467q0 -92 54.5 -158.5t156.5 -66.5q55 0 103.5 22.5t84 60t55 88t19.5 105.5q0 94 -56 160.5t-157 66.5q-57 0 -104 -22.5t-82 -60t-54.5 -89t-19.5 -106.5zM799 1274 q0 43 17.5 81t46 66.5t67.5 45t82 16.5q78 0 127 -51.5t49 -124.5q0 -43 -17.5 -80t-47 -65.5t-68.5 -45t-82 -16.5q-78 0 -126 51t-48 123z" />
<glyph unicode="&#xf7;" horiz-adv-x="1255" d="M231 389l27 250h875l-27 -250h-875zM449 129q0 43 17 81t47 65.5t67.5 44t81.5 16.5q78 0 127 -50t49 -124q0 -43 -17.5 -80t-47.5 -65.5t-67.5 -45t-80.5 -16.5q-78 0 -127 51t-49 123zM526 879q0 43 17.5 80.5t47.5 66.5t68.5 45t79.5 16q78 0 127 -51t49 -125 q0 -43 -17 -79.5t-46 -65.5t-68 -45t-82 -16q-78 0 -127 51t-49 123z" />
<glyph unicode="&#xf8;" horiz-adv-x="1226" d="M115 446q0 113 44 216.5t121.5 181.5t187.5 124t243 46q47 0 81.5 -5t67.5 -12l82 152l117 -53l-76 -144q111 -59 172.5 -166.5t61.5 -244.5q0 -113 -43.5 -215.5t-122 -181t-191 -125t-250.5 -46.5q-84 0 -153 19l-80 -152l-119 54l78 147q-109 59 -165 167.5t-56 237.5 zM430 465q0 -45 12.5 -88t40.5 -72l236 436q-8 2 -14.5 3t-20.5 1q-55 0 -101 -22.5t-80 -61t-53.5 -89t-19.5 -107.5zM598 244q10 -2 20.5 -2h20.5q57 0 105.5 22.5t84 60t55 88t19.5 105.5q0 51 -16.5 96t-46.5 76z" />
<glyph unicode="&#xf9;" horiz-adv-x="1243" d="M158 220q-6 75 4 181l61 586h312l-54 -506q-10 -106 20.5 -172.5t129.5 -66.5q98 0 151.5 67.5t65.5 182.5l51 495h313l-102 -987h-313l14 141q-49 -78 -137 -122t-205 -44q-98 0 -162.5 30t-101.5 83q-41 57 -47 132zM436 1305l121 217l537 -262l-121 -218z" />
<glyph unicode="&#xfa;" horiz-adv-x="1243" d="M158 220q-6 75 4 181l61 586h312l-54 -506q-10 -106 20.5 -172.5t129.5 -66.5q98 0 151.5 67.5t65.5 182.5l51 495h313l-102 -987h-313l14 141q-49 -78 -137 -122t-205 -44q-98 0 -162.5 30t-101.5 83q-41 57 -47 132zM422 1260l594 262l76 -217l-594 -263z" />
<glyph unicode="&#xfb;" horiz-adv-x="1243" d="M158 220q-6 75 4 181l61 586h312l-54 -506q-10 -106 20.5 -172.5t129.5 -66.5q98 0 151.5 67.5t65.5 182.5l51 495h313l-102 -987h-313l14 141q-49 -78 -137 -122t-205 -44q-98 0 -162.5 30t-101.5 83q-41 57 -47 132zM358 1264l435 335l368 -335l-174 -172l-223 219 l-266 -217z" />
<glyph unicode="&#xfc;" horiz-adv-x="1243" d="M158 220q-6 75 4 181l61 586h312l-54 -506q-10 -106 20.5 -172.5t129.5 -66.5q98 0 151.5 67.5t65.5 182.5l51 495h313l-102 -987h-313l14 141q-49 -78 -137 -122t-205 -44q-98 0 -162.5 30t-101.5 83q-41 57 -47 132zM303 1274q0 43 17.5 81t47 66.5t68.5 45t82 16.5 q78 0 127 -51.5t49 -124.5q0 -43 -17.5 -80t-47 -65.5t-68.5 -45t-82 -16.5q-78 0 -127 51t-49 123zM797 1274q0 43 17 81t47 66.5t68 45t81 16.5q78 0 127 -51.5t49 -124.5q0 -43 -17.5 -80t-47 -65.5t-68.5 -45t-82 -16.5q-78 0 -126 51t-48 123z" />
<glyph unicode="&#xfd;" horiz-adv-x="1259" d="M113 -76h313q-4 -80 41 -126t139 -46q82 0 137.5 44t67.5 159l23 203q-51 -80 -136.5 -123t-197.5 -43q-188 0 -273 119q-41 57 -47 128.5t4 176.5l60 571h311l-53 -506q-10 -106 20.5 -172.5t128.5 -66.5t151.5 67.5t65.5 182.5l52 495h313l-107 -1012 q-14 -133 -58 -208.5t-114 -128.5q-72 -53 -165.5 -85t-208.5 -32q-127 0 -221.5 34.5t-141.5 73.5q-45 37 -81 113t-23 182zM428 1260l594 262l78 -217l-594 -263z" />
<glyph unicode="&#xfe;" horiz-adv-x="1294" d="M90 -446l197 1880h313l-61 -588q47 70 134 118t199 48q92 0 168 -35t131.5 -97.5t86 -148.5t30.5 -186q0 -119 -42 -223.5t-113.5 -181.5t-167 -121t-201.5 -44q-117 0 -193.5 49.5t-105.5 114.5l-62 -585h-313zM500 467q0 -92 56.5 -158.5t156.5 -66.5q55 0 103 22.5 t84 60t55.5 88t19.5 105.5q0 94 -56.5 160.5t-156.5 66.5q-55 0 -103.5 -22.5t-84 -61t-55 -89t-19.5 -105.5z" />
<glyph unicode="&#xff;" horiz-adv-x="1259" d="M113 -76h313q-4 -80 41 -126t139 -46q82 0 137.5 44t67.5 159l23 203q-51 -80 -136.5 -123t-197.5 -43q-188 0 -273 119q-41 57 -47 128.5t4 176.5l60 571h311l-53 -506q-10 -106 20.5 -172.5t128.5 -66.5t151.5 67.5t65.5 182.5l52 495h313l-107 -1012 q-14 -133 -58 -208.5t-114 -128.5q-72 -53 -165.5 -85t-208.5 -32q-127 0 -221.5 34.5t-141.5 73.5q-45 37 -81 113t-23 182zM340 1274q0 41 16.5 78t45 64.5t66.5 44t81 16.5q76 0 123 -49.5t47 -120.5q0 -41 -16.5 -78t-45 -64.5t-66.5 -44t-81 -16.5q-76 0 -123 49 t-47 121zM834 1274q0 41 16 78t45 64.5t66.5 44t78.5 16.5q76 0 123 -49.5t47 -120.5q0 -41 -16 -78t-45 -64.5t-67 -44t-78 -16.5q-76 0 -123 49t-47 121z" />
<glyph unicode="&#x152;" horiz-adv-x="2246" d="M135 643q0 158 60.5 306.5t170 264t263 185t342.5 69.5q137 0 238.5 -36.5t176.5 -100.5l11 103h874l-28 -267h-545l-33 -325h545l-29 -260h-545l-32 -316h544l-26 -266h-875l8 96q-88 -63 -196.5 -99t-241.5 -36q-164 0 -291 56.5t-214 149.5t-132 217t-45 259zM477 668 q0 -80 24.5 -154t73 -130t119 -90t162.5 -34q104 0 190.5 42t147.5 112.5t95 160t34 185.5q0 80 -24.5 153.5t-73.5 130t-120 90t-163 33.5q-104 0 -189 -42t-146.5 -112.5t-95.5 -160.5t-34 -184z" />
<glyph unicode="&#x153;" horiz-adv-x="1961" d="M115 446q0 113 43 216.5t121.5 181.5t189.5 124t246 46q127 0 219 -40t156 -106q72 68 171 107t220 39q109 0 194.5 -33t146 -89t92.5 -134t32 -168q0 -47 -8.5 -87t-20.5 -85h-707q-4 -43 2.5 -83t28 -69.5t60 -48t100.5 -18.5q84 0 129 32.5t67 79.5h308 q-18 -70 -63.5 -131t-112 -107t-154.5 -73t-193 -27q-125 0 -217 38t-153 108q-76 -66 -177.5 -106t-224.5 -40q-119 0 -211 37t-155.5 101.5t-96 150.5t-32.5 184zM430 467q0 -92 54.5 -158.5t156.5 -66.5q55 0 103.5 21.5t83 59t55 88t20.5 107.5q0 98 -57.5 162.5 t-155.5 64.5q-57 0 -104 -22.5t-82 -60t-54.5 -89t-19.5 -106.5zM1231 598h407q10 90 -40 142.5t-142 52.5q-88 0 -151.5 -50.5t-73.5 -144.5z" />
<glyph unicode="&#x178;" horiz-adv-x="1312" d="M160 1434h387l246 -564l321 564h367l-863 -1434h-366l321 539zM446 1731q0 41 17.5 77.5t46.5 64.5t66.5 44t78.5 16q76 0 124 -49t48 -121q0 -41 -16 -77.5t-45 -64.5t-66.5 -44t-78.5 -16q-76 0 -125.5 49t-49.5 121zM940 1731q0 41 17.5 77.5t46 64.5t66.5 44t79 16 q76 0 123 -49t47 -121q0 -41 -16.5 -77.5t-45 -64.5t-66.5 -44t-81 -16q-76 0 -123 49t-47 121z" />
<glyph unicode="&#x2c6;" horiz-adv-x="999" d="M242 1403l436 321l366 -321l-180 -180l-219 192l-258 -190z" />
<glyph unicode="&#x2dc;" horiz-adv-x="1050" d="M268 1356q51 29 88 45t65 23.5t46 8.5t35 1q25 0 65.5 -8.5t85.5 -19.5t88 -19.5t72 -8.5t64.5 12.5t105.5 43.5l76 -185q-92 -66 -155.5 -79t-82.5 -13q-33 0 -76 8.5t-88 18.5t-86 18t-67 8q-35 0 -75 -13t-79 -30z" />
<glyph unicode="&#x2000;" horiz-adv-x="1026" />
<glyph unicode="&#x2001;" horiz-adv-x="2052" />
<glyph unicode="&#x2002;" horiz-adv-x="1026" />
<glyph unicode="&#x2003;" horiz-adv-x="2052" />
<glyph unicode="&#x2004;" horiz-adv-x="684" />
<glyph unicode="&#x2005;" horiz-adv-x="513" />
<glyph unicode="&#x2006;" horiz-adv-x="342" />
<glyph unicode="&#x2007;" horiz-adv-x="342" />
<glyph unicode="&#x2008;" horiz-adv-x="256" />
<glyph unicode="&#x2009;" horiz-adv-x="410" />
<glyph unicode="&#x200a;" horiz-adv-x="114" />
<glyph unicode="&#x2010;" horiz-adv-x="649" d="M117 483l26 250h519l-27 -250h-518z" />
<glyph unicode="&#x2011;" horiz-adv-x="649" d="M117 483l26 250h519l-27 -250h-518z" />
<glyph unicode="&#x2012;" horiz-adv-x="649" d="M117 483l26 250h519l-27 -250h-518z" />
<glyph unicode="&#x2013;" horiz-adv-x="1030" d="M133 483l27 250h866l-27 -250h-866z" />
<glyph unicode="&#x2014;" horiz-adv-x="2060" d="M143 483l27 250h1876l-27 -250h-1876z" />
<glyph unicode="&#x2018;" horiz-adv-x="610" d="M217 1110q0 193 116 299.5t333 106.5l-15 -123q-61 0 -105 -14.5t-73 -37.5q-33 -23 -49 -50t-25 -56q14 6 26.5 10t35.5 4q74 0 121 -50t47 -126q0 -43 -17.5 -82t-47 -68.5t-70.5 -46t-91 -16.5q-86 0 -136 59.5t-50 190.5z" />
<glyph unicode="&#x2019;" horiz-adv-x="610" d="M195 860l12 121q63 0 107 14.5t75 36.5q31 23 48.5 51.5t23.5 57.5q-6 -4 -20.5 -9.5t-39.5 -5.5q-76 0 -123 50t-47 124q0 43 17.5 83t47.5 69t71 46.5t88 17.5q86 0 137 -60.5t51 -191.5q0 -197 -118.5 -300.5t-329.5 -103.5z" />
<glyph unicode="&#x201a;" horiz-adv-x="610" d="M72 -303l12 121q63 0 107.5 14t74.5 37q33 25 48.5 52.5t21.5 55.5q-4 -4 -19.5 -9t-37.5 -5q-76 0 -123 50t-47 124q0 43 17 83t47 68.5t71 46t88 17.5q86 0 137 -60.5t51 -191.5q0 -197 -118.5 -300t-329.5 -103z" />
<glyph unicode="&#x201c;" horiz-adv-x="1071" d="M217 1110q0 193 116 299.5t333 106.5l-15 -123q-61 0 -105 -14.5t-73 -37.5q-33 -23 -49 -50t-25 -56q14 6 26.5 10t35.5 4q74 0 121 -50t47 -126q0 -43 -17.5 -82t-47 -68.5t-70.5 -46t-91 -16.5q-86 0 -136 59.5t-50 190.5zM678 1110q0 193 114.5 299.5t333.5 106.5 l-14 -123q-61 0 -105 -14.5t-75 -37.5q-57 -43 -72 -106q4 4 19.5 9t42.5 5q72 0 120 -50t48 -126q0 -43 -17.5 -82t-47.5 -68.5t-71 -46t-90 -16.5q-86 0 -136 59.5t-50 190.5z" />
<glyph unicode="&#x201d;" horiz-adv-x="1071" d="M195 860l12 121q63 0 107 14.5t75 36.5q31 23 48.5 51.5t23.5 57.5q-4 -4 -19.5 -9.5t-40.5 -5.5q-76 0 -123 50t-47 124q0 43 17.5 83t47.5 69t71 46.5t88 17.5q86 0 137 -60.5t51 -191.5q0 -197 -118.5 -300.5t-329.5 -103.5zM655 860l13 121q59 0 103 13.5t77 37.5 q31 23 48 51.5t26 57.5q-6 -4 -21.5 -9.5t-40.5 -5.5q-72 0 -120 49t-48 125q0 43 17.5 82t47 69t70.5 47.5t91 17.5q86 0 136 -60.5t50 -189.5q0 -190 -115 -298t-334 -108z" />
<glyph unicode="&#x201e;" horiz-adv-x="1071" d="M72 -303l12 121q63 0 107.5 14t74.5 37q33 25 48.5 52.5t21.5 55.5q-4 -4 -19.5 -9t-37.5 -5q-76 0 -123 50t-47 124q0 43 17 83t47 68.5t71 46t88 17.5q86 0 137 -60.5t51 -191.5q0 -197 -118.5 -300t-329.5 -103zM532 -303l13 121q61 0 106 14t74 37q31 23 47 51.5 t25 56.5q-4 -4 -19.5 -9t-40.5 -5q-72 0 -120 49t-48 125q0 43 17.5 82t47.5 68.5t70.5 47t90.5 17.5q86 0 136 -60.5t50 -189.5q0 -190 -114.5 -297.5t-334.5 -107.5z" />
<glyph unicode="&#x2022;" horiz-adv-x="743" d="M162 614q0 61 24.5 115.5t66.5 95.5t97.5 64.5t116.5 23.5q55 0 100 -19.5t79 -53t52.5 -79.5t18.5 -97q0 -61 -24.5 -114.5t-66.5 -94.5t-97.5 -64.5t-116.5 -23.5q-55 0 -101.5 19.5t-79 53t-51 78.5t-18.5 96z" />
<glyph unicode="&#x2026;" horiz-adv-x="2019" d="M121 168q0 45 18.5 86t50 71.5t72.5 49t86 18.5q84 0 136.5 -55t52.5 -133q0 -45 -18.5 -86t-49.5 -72t-73 -48t-87 -17q-86 0 -137 54t-51 132zM821 166q0 45 18.5 86t50.5 71.5t73 49t86 18.5q84 0 136 -55t52 -133q0 -45 -18.5 -86t-49 -72t-72.5 -48t-87 -17 q-86 0 -137.5 54t-51.5 132zM1522 166q0 45 18.5 86t49 71.5t71.5 48t88 17.5q84 0 136 -54t52 -132q0 -45 -18 -86t-49 -72t-73 -48t-87 -17q-84 0 -136 54t-52 132z" />
<glyph unicode="&#x202f;" horiz-adv-x="410" />
<glyph unicode="&#x2039;" horiz-adv-x="598" d="M129 514l16 164l476 354l-29 -272l-230 -164l195 -164l-29 -272z" />
<glyph unicode="&#x203a;" horiz-adv-x="598" d="M102 160l29 272l225 164l-190 164l29 272l399 -354l-19 -164z" />
<glyph unicode="&#x205f;" horiz-adv-x="513" />
<glyph unicode="&#x20ac;" horiz-adv-x="1290" d="M68 483l59 181h86l12 106h-127l60 180h86q12 106 60 200.5t127 164t184.5 109.5t228.5 40q119 0 213 -37.5t158.5 -102t96 -152t27.5 -185.5h-331q-2 84 -52.5 140.5t-142.5 56.5q-49 0 -91 -18.5t-73 -50.5t-50 -75t-24 -90h351l-60 -180h-309l-12 -106h350l-59 -181 h-310q-6 -47 4.5 -90t35 -74.5t62.5 -50t87 -18.5t91 18.5t73.5 50t51 74.5t25.5 90h332q-10 -104 -59 -197t-128 -164t-184.5 -112t-230.5 -41t-221 41t-159.5 112t-92.5 164t-18 197h-127z" />
<glyph unicode="&#x2122;" horiz-adv-x="1714" d="M197 1249l18 185h561l-18 -185h-176l-68 -649h-211l68 649h-174zM780 600l86 834h322l100 -531l211 531h318l-86 -834h-207l63 619l-244 -619h-169l-123 619l-64 -619h-207z" />
<glyph unicode="&#x25fc;" horiz-adv-x="983" d="M0 0v983h983v-983h-983z" />
</font>
</defs>
</svg>
